<?xml version="1.0" encoding="utf-8"?>
<!-- Generator: Adobe Illustrator 27.5.0, SVG Export Plug-In . SVG Version: 6.00 Build 0)  -->
<svg version="1.1" xmlns="http://www.w3.org/2000/svg" xmlns:xlink="http://www.w3.org/1999/xlink" x="0px" y="0px"
	 viewBox="0 0 500 500" style="enable-background:new 0 0 500 500;" xml:space="preserve">
<g id="BACKGROUND">
	<g>
		<rect style="fill:#A4A4E4;" width="500" height="500"/>
		<circle style="fill:#E3E3F7;" cx="250" cy="250" r="205.068"/>
	</g>
</g>
<g id="OBJECTS">
	<g>
		<g>
			<g>
				<g>
					<path style="fill:#2F2FA7;" d="M84.134,90.886h29.809c4.194,0,7.593,3.4,7.593,7.593v18.487c0,4.194-3.4,7.593-7.593,7.593
						H84.134c-4.194,0-7.593-3.4-7.593-7.593V98.48C76.541,94.286,79.94,90.886,84.134,90.886z"/>
					<g>
						<path style="fill:#D967A2;" d="M84.19,113.909h15.442c0.594,0,1.075,0.481,1.075,1.075c0,0.594-0.481,1.075-1.075,1.075H84.19
							c-0.594,0-1.075-0.481-1.075-1.075C83.115,114.391,83.596,113.909,84.19,113.909z"/>
						<path style="fill:#D967A2;" d="M84.19,105.737h30.478c0.594,0,1.075,0.481,1.075,1.075s-0.481,1.075-1.075,1.075H84.19
							c-0.594,0-1.075-0.481-1.075-1.075S83.596,105.737,84.19,105.737z"/>
						<path style="fill:#D967A2;" d="M84.19,97.563h30.478c0.594,0,1.075,0.481,1.075,1.075c0,0.594-0.481,1.075-1.075,1.075H84.19
							c-0.594,0-1.075-0.481-1.075-1.075C83.115,98.045,83.596,97.563,84.19,97.563z"/>
					</g>
				</g>
				<g>
					<circle style="fill:#FFFFFF;" cx="146.409" cy="91.406" r="28.449"/>
					<g>
						<defs>
							<circle id="SVGID_1_" cx="146.409" cy="91.406" r="28.449"/>
						</defs>
						<clipPath id="SVGID_00000025403471976802732380000011700351240077938335_">
							<use xlink:href="#SVGID_1_"  style="overflow:visible;"/>
						</clipPath>
						
							<path style="clip-path:url(#SVGID_00000025403471976802732380000011700351240077938335_);fill-rule:evenodd;clip-rule:evenodd;fill:#A4A4E4;" d="
							M171.743,121.003c-18.943-0.161-31.763-0.173-50.658,0c-0.137-7.158,1.269-11.404,6.595-13.721
							c3.891-1.685,9.352-1.482,10.554-4.748c1.704-4.637-2.175-9.08-3.432-13.191c-2.71-8.902,2.003-19.305,10.557-20.053
							c8.947-0.788,14.938,9.435,12.663,18.732c-1.172,4.791-5.056,9.267-3.692,13.984c0.805,2.774,4.116,3.541,7.387,4.488
							C168.792,108.526,171.698,111.246,171.743,121.003z"/>
					</g>
				</g>
				<g>
					<path style="fill:#1E1E77;" d="M189.452,40.498h-27.053c-2.48,0-4.49,2.01-4.49,4.49v12.393v3.335v14.573l11.166-10.083v0
						h20.377c2.48,0,4.49-2.01,4.49-4.49V44.988C193.942,42.508,191.932,40.498,189.452,40.498z"/>
					<g>
						<circle style="fill:#FFFFFF;" cx="168.355" cy="53.313" r="2.269"/>
						<circle style="fill:#FFFFFF;" cx="176.023" cy="53.313" r="2.269"/>
						<circle style="fill:#FFFFFF;" cx="183.691" cy="53.313" r="2.269"/>
					</g>
				</g>
				<g>
					<path style="fill:#1E1E77;" d="M48.736,180.183v-12.235c0-1.885,1.534-3.42,3.419-3.42h38.16c1.885,0,3.42,1.535,3.42,3.42
						v12.235c0,1.886-1.535,3.421-3.42,3.421h-38.16C50.27,183.604,48.736,182.069,48.736,180.183z"/>
					<path style="fill:#FFFFFF;" d="M52.155,166.648c-0.716,0-1.3,0.583-1.3,1.3v12.235c0,0.718,0.584,1.301,1.3,1.301h38.16
						c0.718,0,1.3-0.584,1.3-1.301v-12.235c0-0.717-0.583-1.3-1.3-1.3H52.155z"/>
					<g>
						<path style="fill:#1E1E77;" d="M61.283,172.321H83.13c0.585,0,1.06-0.474,1.06-1.059c0-0.586-0.475-1.06-1.06-1.06H61.283
							c-0.586,0-1.059,0.474-1.059,1.06C60.224,171.847,60.697,172.321,61.283,172.321z"/>
						<path style="fill:#1E1E77;" d="M61.283,177.748h10.924c0.585,0,1.059-0.474,1.059-1.059s-0.474-1.06-1.059-1.06H61.283
							c-0.586,0-1.059,0.475-1.059,1.06S60.697,177.748,61.283,177.748z"/>
					</g>
				</g>
			</g>
			<g>
				<g>
					<g>
						<path style="fill:#A4A4E4;" d="M319.466,87.764c0,0-21.133-17.553-27.341-22.817c-6.207-5.268-7.834-4.247-12.627,0.065
							c-5.665,5.094-27.257,22.767-27.257,22.767l0,0.457l67.227-0.015L319.466,87.764z"/>
						<polygon style="fill:#A4A4E4;" points="252.24,87.78 252.242,93.959 285.858,122.653 319.468,93.943 319.466,87.764 						"/>
						<g>
							<rect x="260.174" y="73.627" style="fill:#FFFFFF;" width="51.52" height="47.241"/>
						</g>
						<g>
							<path style="fill:#D967A2;" d="M307.193,81.107h-43.616c-0.514,0-0.93-0.416-0.93-0.93c0-0.514,0.416-0.93,0.93-0.93h43.616
								c0.514,0,0.93,0.416,0.93,0.93C308.123,80.69,307.706,81.107,307.193,81.107z"/>
							<path style="fill:#D967A2;" d="M307.193,87.276h-43.616c-0.514,0-0.93-0.416-0.93-0.93c0-0.514,0.416-0.93,0.93-0.93h43.616
								c0.514,0,0.93,0.416,0.93,0.93C308.123,86.86,307.706,87.276,307.193,87.276z"/>
							<path style="fill:#D967A2;" d="M307.193,93.446h-43.616c-0.514,0-0.93-0.416-0.93-0.93c0-0.514,0.416-0.93,0.93-0.93h43.616
								c0.514,0,0.93,0.416,0.93,0.93C308.123,93.029,307.706,93.446,307.193,93.446z"/>
							<path style="fill:#D967A2;" d="M292.158,99.615h-28.582c-0.514,0-0.93-0.416-0.93-0.93c0-0.514,0.416-0.93,0.93-0.93h28.582
								c0.514,0,0.93,0.416,0.93,0.93C293.088,99.199,292.672,99.615,292.158,99.615z"/>
						</g>
						<g>
							<polygon style="fill:#BCBCEA;" points="319.476,133.357 252.251,133.372 252.24,87.78 285.859,112.766 319.466,87.764 
															"/>
							<path style="fill:#A4A4E4;" d="M319.477,134.166l-67.227,0.012l-0.001-5.8c0,0,21.594-13.382,27.259-18.477
								c4.793-4.311,6.695-5.055,12.902,0.21c6.208,5.266,27.067,18.253,27.067,18.253L319.477,134.166z"/>
						</g>
					</g>
				</g>
				<g>
					<path style="fill:#2F2FA7;" d="M348.835,105.766h-28.86c-5.282,0-9.564-4.282-9.564-9.564V60.133
						c0-5.282,4.282-9.564,9.564-9.564h28.86c5.282,0,9.564,4.282,9.564,9.564v36.068
						C358.398,101.484,354.116,105.766,348.835,105.766z"/>
					<path style="fill:#FFFFFF;" d="M344.356,100.71h-19.569c-5.282,0-9.564-4.282-9.564-9.564V74.717
						c0-5.282,4.282-9.564,9.564-9.564h19.569c5.282,0,9.564,4.282,9.564,9.564v16.429C353.92,96.428,349.638,100.71,344.356,100.71
						z"/>
					<g>
						<path style="fill:#1E1E77;" d="M323.55,72.517c1.333-1.058,3.039-1.588,5.115-1.588c1.425,0,2.657,0.255,3.695,0.763
							c1.038,0.509,1.822,1.202,2.351,2.076c0.529,0.875,0.794,1.863,0.794,2.962c0,1.262-0.336,2.341-1.008,3.237
							c-0.672,0.896-1.476,1.496-2.412,1.801v0.123c1.201,0.366,2.138,1.033,2.81,2c0.671,0.967,1.007,2.204,1.007,3.71
							c0,1.202-0.275,2.27-0.824,3.207c-0.55,0.937-1.364,1.675-2.443,2.214c-1.079,0.539-2.372,0.809-3.878,0.809
							c-2.199,0-4.005-0.565-5.42-1.695c-1.207-0.964-1.936-2.287-2.187-3.97c-0.071-0.475,0.309-0.901,0.789-0.901h1.8
							c0.377,0,0.694,0.268,0.774,0.636c0.174,0.795,0.56,1.463,1.16,2.006c0.753,0.682,1.771,1.023,3.053,1.023
							c1.242,0,2.199-0.341,2.871-1.023c0.672-0.682,1.008-1.562,1.008-2.642c0-1.425-0.453-2.437-1.359-3.038
							c-0.906-0.6-2.296-0.901-4.168-0.901l0,0c-0.439,0-0.794-0.355-0.794-0.794V81.25c0-0.438,0.355-0.794,0.794-0.794h0.03
							c1.649-0.02,2.906-0.295,3.772-0.824c0.865-0.529,1.298-1.364,1.298-2.504c0-0.977-0.316-1.756-0.947-2.336
							c-0.631-0.58-1.527-0.871-2.687-0.871c-1.141,0-2.026,0.29-2.657,0.871c-0.485,0.445-0.819,0.971-1.003,1.578
							c-0.103,0.338-0.406,0.575-0.759,0.575h-1.859c-0.507,0-0.873-0.466-0.777-0.964C321.765,74.543,322.452,73.388,323.55,72.517
							z"/>
						<path style="fill:#1E1E77;" d="M339.109,73.83v-1.588c0-0.439,0.355-0.794,0.794-0.794h4.764c0.439,0,0.794,0.355,0.794,0.794
							v20.673c0,0.438-0.355,0.794-0.794,0.794h-1.923c-0.439,0-0.794-0.355-0.794-0.794V75.418c0-0.438-0.355-0.794-0.794-0.794
							h-1.252C339.464,74.624,339.109,74.268,339.109,73.83z"/>
					</g>
					<g>
						<path style="fill:#B04470;" d="M324.558,56.372c0,1.898-1.539,3.437-3.437,3.437c-1.898,0-3.437-1.539-3.437-3.437
							s1.539-3.437,3.437-3.437C323.019,52.936,324.558,54.474,324.558,56.372"/>
						<path style="fill:#FFFFFF;" d="M321.11,57.885L321.11,57.885c-0.941,0-1.71-0.77-1.71-1.711v-6.5
							c0-0.941,0.769-1.71,1.71-1.71c0.941,0,1.71,0.769,1.71,1.71v6.5C322.82,57.115,322.051,57.885,321.11,57.885"/>
					</g>
					<g>
						<path style="fill:#B04470;" d="M351.869,56.372c0,1.898-1.539,3.437-3.437,3.437s-3.437-1.539-3.437-3.437
							s1.539-3.437,3.437-3.437S351.869,54.474,351.869,56.372"/>
						<path style="fill:#FFFFFF;" d="M348.422,57.885L348.422,57.885c-0.941,0-1.71-0.77-1.71-1.711v-6.5
							c0-0.941,0.77-1.71,1.71-1.71s1.71,0.769,1.71,1.71v6.5C350.132,57.115,349.363,57.885,348.422,57.885"/>
					</g>
				</g>
				<g>
					<path style="fill:#2F2FA7;" d="M213.168,57.762V45.528c0-1.885,1.533-3.42,3.419-3.42h38.16c1.885,0,3.42,1.535,3.42,3.42
						v12.235c0,1.886-1.535,3.421-3.42,3.421h-38.16C214.701,61.183,213.168,59.649,213.168,57.762z"/>
					<path style="fill:#A4A4E4;" d="M216.587,44.227c-0.716,0-1.3,0.584-1.3,1.3v12.235c0,0.718,0.584,1.301,1.3,1.301h38.16
						c0.718,0,1.3-0.584,1.3-1.301V45.528c0-0.717-0.583-1.3-1.3-1.3H216.587z"/>
					<g>
						<path style="fill:#2F2FA7;" d="M225.715,49.901h21.847c0.585,0,1.06-0.474,1.06-1.058c0-0.586-0.475-1.06-1.06-1.06h-21.847
							c-0.585,0-1.059,0.474-1.059,1.06C224.655,49.427,225.129,49.901,225.715,49.901z"/>
						<path style="fill:#2F2FA7;" d="M225.715,55.328h10.924c0.585,0,1.059-0.474,1.059-1.059s-0.474-1.06-1.059-1.06h-10.924
							c-0.585,0-1.059,0.475-1.059,1.06S225.129,55.328,225.715,55.328z"/>
					</g>
				</g>
				<g>
					<path style="fill:#1E1E77;" d="M268.416,138.048c0,2.385-1.932,4.318-4.316,4.318h-20.467c-2.382,0-4.314-1.933-4.314-4.318
						v-0.25c0-2.385,1.933-4.316,4.314-4.316H264.1c2.385,0,4.316,1.932,4.316,4.316V138.048z"/>
					<g>
						<path style="fill:#FFFFFF;" d="M248.426,137.945c0,0.921-0.746,1.667-1.666,1.667c-0.92,0-1.665-0.746-1.665-1.667
							c0-0.919,0.745-1.665,1.665-1.665C247.68,136.279,248.426,137.026,248.426,137.945z"/>
						<path style="fill:#FFFFFF;" d="M255.533,137.945c0,0.921-0.746,1.667-1.665,1.667c-0.922,0-1.667-0.746-1.667-1.667
							c0-0.919,0.745-1.665,1.667-1.665C254.787,136.279,255.533,137.026,255.533,137.945z"/>
						<path style="fill:#FFFFFF;" d="M262.641,137.945c0,0.921-0.746,1.667-1.666,1.667s-1.666-0.746-1.666-1.667
							c0-0.919,0.746-1.665,1.666-1.665S262.641,137.026,262.641,137.945z"/>
					</g>
				</g>
			</g>
			<g>
				<g>
					<path style="fill-rule:evenodd;clip-rule:evenodd;fill:#FFFFFF;" d="M400.953,191.866c0,2.459,1.992,4.45,4.45,4.45l0,0
						c2.458,0,4.451-1.992,4.451-4.45v-60.264c0-2.458-1.993-4.451-4.451-4.451l0,0c-2.458,0-4.45,1.993-4.45,4.451V191.866z"/>
					<path style="fill-rule:evenodd;clip-rule:evenodd;fill:#D967A2;" d="M405.404,151.815c2.458,0,4.451,1.993,4.451,4.45v35.601
						c0,2.459-1.993,4.45-4.451,4.45c-2.458,0-4.45-1.992-4.45-4.45v-35.601C400.953,153.808,402.945,151.815,405.404,151.815z"/>
				</g>
				<g>
					<path style="fill-rule:evenodd;clip-rule:evenodd;fill:#FFFFFF;" d="M385.401,191.866c0,2.459,1.992,4.45,4.45,4.45l0,0
						c2.458,0,4.45-1.992,4.45-4.45v-60.264c0-2.458-1.992-4.451-4.45-4.451l0,0c-2.458,0-4.45,1.993-4.45,4.451V191.866z"/>
					<path style="fill-rule:evenodd;clip-rule:evenodd;fill:#D967A2;" d="M389.851,140.111c2.458,0,4.45,1.993,4.45,4.45v47.305
						c0,2.459-1.992,4.45-4.45,4.45c-2.458,0-4.45-1.992-4.45-4.45v-47.305C385.401,142.104,387.393,140.111,389.851,140.111z"/>
				</g>
				<g>
					<path style="fill-rule:evenodd;clip-rule:evenodd;fill:#FFFFFF;" d="M370.398,191.866c0,2.459,1.993,4.45,4.451,4.45l0,0
						c2.458,0,4.45-1.992,4.45-4.45v-60.264c0-2.458-1.992-4.451-4.45-4.451l0,0c-2.458,0-4.451,1.993-4.451,4.451V191.866z"/>
					<path style="fill-rule:evenodd;clip-rule:evenodd;fill:#D967A2;" d="M374.849,148.535c2.458,0,4.45,1.992,4.45,4.45v38.881
						c0,2.459-1.992,4.45-4.45,4.45s-4.451-1.992-4.451-4.45v-38.881C370.398,150.528,372.391,148.535,374.849,148.535z"/>
				</g>
				<g>
					<path style="fill-rule:evenodd;clip-rule:evenodd;fill:#FFFFFF;" d="M355.63,191.866c0,2.459,1.993,4.45,4.451,4.45l0,0
						c2.457,0,4.45-1.992,4.45-4.45v-60.264c0-2.458-1.993-4.451-4.45-4.451l0,0c-2.458,0-4.451,1.993-4.451,4.451V191.866z"/>
					<path style="fill-rule:evenodd;clip-rule:evenodd;fill:#D967A2;" d="M360.081,132.276c2.457,0,4.45,1.993,4.45,4.45v55.14
						c0,2.459-1.993,4.45-4.45,4.45c-2.458,0-4.451-1.992-4.451-4.45v-55.14C355.63,134.269,357.623,132.276,360.081,132.276z"/>
				</g>
				<g>
					<path style="fill-rule:evenodd;clip-rule:evenodd;fill:#FFFFFF;" d="M340.862,191.866c0,2.459,1.993,4.45,4.45,4.45l0,0
						c2.458,0,4.451-1.992,4.451-4.45v-60.264c0-2.458-1.993-4.451-4.451-4.451l0,0c-2.457,0-4.45,1.993-4.45,4.451V191.866z"/>
					<path style="fill-rule:evenodd;clip-rule:evenodd;fill:#D967A2;" d="M345.313,145.865c2.458,0,4.451,1.992,4.451,4.45v41.551
						c0,2.459-1.993,4.45-4.451,4.45c-2.457,0-4.45-1.992-4.45-4.45v-41.551C340.862,147.857,342.855,145.865,345.313,145.865z"/>
				</g>
				<path style="fill:#1E1E77;" d="M413.108,81.487h-28.996c-2.658,0-4.812,2.155-4.812,4.813v13.283v3.574v15.62l11.968-10.807v0
					h21.84c2.658,0,4.813-2.155,4.813-4.813V86.3C417.92,83.642,415.766,81.487,413.108,81.487z"/>
				<g>
					<path style="fill:#FFFFFF;" d="M385.553,102.664c-0.297,0-0.59-0.131-0.789-0.382c-0.344-0.436-0.27-1.067,0.165-1.411
						l7.784-6.152c0.376-0.295,0.907-0.287,1.272,0.022l4.74,4.014l11.337-11.852c0.383-0.401,1.019-0.415,1.42-0.031
						c0.401,0.384,0.415,1.019,0.031,1.42l-11.99,12.535c-0.367,0.383-0.97,0.416-1.375,0.072l-4.835-4.094l-7.139,5.642
						C385.991,102.593,385.771,102.664,385.553,102.664z"/>
					<path style="fill:#8080C9;" d="M404.071,87.598"/>
					<path style="fill:#FFFFFF;" d="M410.788,97.077c-0.555,0-1.004-0.45-1.004-1.004v-7.47h-7.47c-0.555,0-1.004-0.45-1.004-1.004
						c0-0.555,0.45-1.004,1.004-1.004h8.475c0.555,0,1.004,0.45,1.004,1.004v8.475C411.792,96.627,411.343,97.077,410.788,97.077z"
						/>
				</g>
				<path style="fill:#1E1E77;" d="M457.264,208.604c0,2.385-1.932,4.318-4.316,4.318h-20.467c-2.382,0-4.314-1.933-4.314-4.318
					v-0.25c0-2.385,1.933-4.316,4.314-4.316h20.467c2.385,0,4.316,1.932,4.316,4.316V208.604z"/>
				<g>
					<path style="fill:#FFFFFF;" d="M437.274,208.501c0,0.921-0.746,1.667-1.666,1.667s-1.665-0.746-1.665-1.667
						c0-0.919,0.745-1.665,1.665-1.665S437.274,207.582,437.274,208.501z"/>
					<path style="fill:#FFFFFF;" d="M444.381,208.501c0,0.921-0.746,1.667-1.665,1.667c-0.922,0-1.667-0.746-1.667-1.667
						c0-0.919,0.745-1.665,1.667-1.665C443.635,206.835,444.381,207.582,444.381,208.501z"/>
					<path style="fill:#FFFFFF;" d="M451.489,208.501c0,0.921-0.746,1.667-1.666,1.667c-0.92,0-1.666-0.746-1.666-1.667
						c0-0.919,0.746-1.665,1.666-1.665C450.742,206.835,451.489,207.582,451.489,208.501z"/>
				</g>
			</g>
		</g>
		<g>
			<g>
				<g>
					<g>
						<g>
							<g>
								<path style="fill-rule:evenodd;clip-rule:evenodd;fill:#E2B1CE;" d="M270.651,291.341c-1.679-0.69-2.788-3.001-4.509-3.922
									c-1.513-0.809-6.62-1.434-10.125-2.063c-1.279-0.23-2.607-0.406-3.955-0.568c-1.95-10.535-4.304-20.678-6.224-30.935
									c-0.652-3.483-1.265-6.815-2.122-10.094c-0.822-3.141-2.051-6.187-3.105-9.295c-2.17-6.396-5.196-23.44-6.955-30.301
									c-0.003-0.065-0.009-0.126-0.098-0.111l-18.656,4.011c0.568,3.567,3.299,15.263,3.973,19.07
									c0.68,3.846,0.605,8.186,0.74,12.217c0.296,8.834,1.896,15.525,4.024,22.516c3.586,11.767,9.257,22.155,14.978,32.102
									c0.353,0.614,1.409,2.75,2.211,3.661v0.001c0.717,2.202,23.637,0.352,26.393,1.284c1.622,0.55,7.413,3.357,7.323-0.7
									c0.528,0.293,1.566,0.2,1.665-0.394C276.797,296.381,273.121,292.356,270.651,291.341z"/>
								<g>
									<path style="fill-rule:evenodd;clip-rule:evenodd;fill:#875633;" d="M230.637,238.796l9.52-2.649
										C240.158,236.147,234.242,232.893,230.637,238.796z"/>
									<path style="fill-rule:evenodd;clip-rule:evenodd;fill:#BB78A2;" d="M275.921,296.224c0.343,0.521,0.637,1.228,0.193,1.738
										c-1.037,1.191-2.788-0.764-4.312-1.684c-0.992-0.599-2.182-1.189-3.096-1.588c-2.432-1.058-7.423-2.045-7.423-2.045
										c3.387-0.313,8.199,1.176,10.979,2.666C273.18,295.803,275.93,296.666,275.921,296.224"/>
									<path style="fill-rule:evenodd;clip-rule:evenodd;fill:#BB78A2;" d="M260.677,288.572c2.778,0.077,5.681,0.156,7.769,0.932
										c0,0,1.315,1.326,2.793,2.122C268.446,290.631,264.477,289.021,260.677,288.572"/>
								</g>
							</g>
							<path style="fill-rule:evenodd;clip-rule:evenodd;fill:#BCBCEA;" d="M251.558,282.119
								c-9.701,2.947-11.927,4.145-22.768,5.536c-3.594-10.318-27.403-102.351-26.667-113.354
								c0.337-5.036,1.207-10.224,2.848-14.797c1.546-4.3,4.181-9.447,8.933-10.78c1.905-0.533,2.872-0.708,4.239-0.218
								c3.395,1.22,7.017,5.636,8.701,9.739c1.828,4.448,3.146,9.366,4.362,14.105C233.824,182.563,249.564,271.913,251.558,282.119
								z"/>
						</g>
						<path style="fill:#A4A4E4;" d="M218.831,147.393c1.139,1.797,1.942,3.818,2.115,6.066c0.278,3.575-0.906,6.689-2.146,9.455
							c-1.245,2.778-2.621,5.331-4.069,7.543c-2.711,4.14-6.01,7.828-8.996,11.381C233.691,163.674,219.254,147.442,218.831,147.393
							z"/>
					</g>
					<g>
						<g>
							<path style="fill:#CECEF4;" d="M166.697,130.673c4.62,0.003,8.691,0.719,12.742,1.576c6.136,1.299,12.149,3.06,18.141,4.897
								c3.841,1.178,7.682,2.354,11.378,3.948c2.436,1.051,4.813,2.212,7.067,3.627c3.311,2.078,4.899,5.035,4.931,8.945
								c0.039,4.73-0.972,9.169-3.369,13.258c-2.033,3.468-4.238,6.826-6.856,9.889c-2.651,3.101-5.678,5.809-9.059,8.077
								c-7.017,4.707-13.646,9.916-20.111,15.34c-5.543,4.651-10.822,9.586-15.712,14.928c-1.383,1.511-2.821,2.971-4.199,4.487
								c-0.522,0.574-1.086,0.846-1.878,0.878c-4.815,0.197-9.632,0.312-14.447,0.488c-7.265,0.266-14.533,0.35-21.799,0.505
								c-5.623,0.12-11.248,0.017-16.867,0.201c-4.493,0.147-8.992,0.212-13.473,0.629c-0.439,0.041-0.883,0.067-1.324,0.053
								c-0.794-0.025-1.036-0.267-0.863-1.057c0.257-1.175,0.59-2.337,0.947-3.486c1.262-4.069,2.698-8.076,4.41-11.98
								c1.343-3.062,3.018-5.943,4.779-8.777c5.228-8.412,11.221-16.26,17.588-23.831c4.189-4.981,8.119-10.171,12.201-15.238
								c3.177-3.943,6.544-7.718,9.94-11.47c2.157-2.383,4.349-4.733,6.684-6.944c2.311-2.188,4.802-4.152,7.535-5.789
								C158.795,131.602,162.817,130.523,166.697,130.673z"/>
						</g>
						<path style="fill:#A4A4E4;" d="M155.739,133.447c-0.22,0.122-0.439,0.248-0.656,0.378c-2.733,1.637-5.224,3.601-7.535,5.789
							c-2.335,2.211-4.527,4.561-6.684,6.944c-3.396,3.752-6.763,7.527-9.94,11.47c-4.083,5.067-8.012,10.256-12.201,15.238
							c-6.367,7.572-12.36,15.419-17.588,23.831c-1.761,2.834-3.436,5.715-4.779,8.777c-1.712,3.904-3.148,7.911-4.41,11.98
							c-0.356,1.15-0.689,2.311-0.947,3.486c-0.173,0.791,0.069,1.032,0.863,1.057c0.44,0.014,0.884-0.012,1.324-0.053
							c3.325-0.31,6.66-0.425,9.995-0.524c0.689-3.702,1.734-7.324,3.133-10.882c2.905-7.385,7.007-14.086,11.534-20.544
							c4.219-6.019,8.55-11.958,12.797-17.958c5.501-7.771,11.059-15.49,17.436-22.592c3.584-3.991,7.394-7.702,11.691-10.912
							c2.481-1.853,5.104-3.469,7.799-4.965C163.625,133.863,159.681,133.683,155.739,133.447z"/>
					</g>
					<g>
						<g>
							<path style="fill-rule:evenodd;clip-rule:evenodd;fill:#E2B1CE;" d="M197.175,96.008c3.076-4.619,6.561-6.388,11.044-8.019
								c5.069-1.843,10.936-2.251,17.103,1.74c13.545,8.759,7.612,18.603,2.46,28.092c-4.775,8.792-7.525,13.854-14.224,15.278
								c-1.551,0.332-2.972,0.38-4.352,0.528c0,0-3.19,6.284-6.302,12.348c-2.753,5.367-22.619-5.874-19.835-10.819
								c4.905-8.713,11.147-19.324,11.334-20.166C194.662,113.828,191.777,105.406,197.175,96.008z"/>
							<g>
								<path style="fill:#BB78A2;" d="M209.206,133.626c-9.722-2.418-11.562-10.6-11.562-10.6s-2.703,11.411,9.098,15.465
									L209.206,133.626z"/>
								<g>
									<path style="fill-rule:evenodd;clip-rule:evenodd;fill:#E2B1CE;" d="M191.317,100.365c-1.31,2.454-1.479,9.55,1.458,10.66
										c2.21,0.838,5.804-3.805,7.119-6.256c1.31-2.454,2.113-4.465,2.113-4.465c-2.219-0.496-5.196-2.338-6.292-2.476
										C193.237,97.518,192.23,98.665,191.317,100.365z"/>
									<g>
										<path style="fill:#BB78A2;" d="M196.898,108.07c0.053,0.028,0.102,0.045,0.157,0.063c0.362,0.088,0.73-0.132,0.825-0.494
											c0.723-2.872,0.147-5.467-1.618-7.301c-0.26-0.266-0.695-0.274-0.959-0.019c-0.271,0.263-0.278,0.691-0.02,0.961
											c1.433,1.48,1.884,3.624,1.279,6.029C196.488,107.614,196.634,107.928,196.898,108.07z"/>
										<path style="fill:#BB78A2;" d="M192.845,106.004c0.294,0.161,0.668,0.073,0.872-0.209c0.727-1.034,1.972-1.554,3.51-1.465
											c0.367,0.019,0.691-0.267,0.712-0.642c0.023-0.373-0.262-0.694-0.64-0.711c-2.018-0.113-3.685,0.608-4.692,2.039
											c-0.215,0.307-0.146,0.731,0.164,0.947C192.796,105.976,192.821,105.991,192.845,106.004z"/>
									</g>
								</g>
							</g>
							<g>
								<g>
									<path style="fill:#BB78A2;" d="M213.906,120.449c0.031,0.017,0.07,0.03,0.104,0.046c1.034,0.315,1.898,0.283,2.625-0.108
										c1.472-0.799,2.056-2.845,2.795-5.429c0.467-1.649,1.004-3.511,1.855-5.354c0.148-0.341,0.003-0.748-0.334-0.897
										c-0.34-0.156-0.751-0.009-0.9,0.331c-0.892,1.938-1.437,3.855-1.924,5.551c-0.621,2.189-1.163,4.084-2.13,4.612
										c-0.393,0.204-0.911,0.212-1.573,0.004c-0.366-0.11-0.731,0.084-0.85,0.441C213.47,119.967,213.62,120.296,213.906,120.449
										"/>
								</g>
								<g>
									<g>
										<path style="fill-rule:evenodd;clip-rule:evenodd;fill:#1E1E77;" d="M225.711,116.778
											c-0.487,0.909-1.439,1.36-2.104,0.988c-0.67-0.359-0.807-1.399-0.312-2.311c0.502-0.91,1.447-1.358,2.108-0.995
											C226.076,114.819,226.212,115.861,225.711,116.778"/>
									</g>
									<path style="fill-rule:evenodd;clip-rule:evenodd;fill:#5D382E;" d="M224.783,106.649
										c-0.453,0.372,1.622,2.393,3.086,4.127c1.442,1.735,2.294,3.263,2.741,2.884c0.455-0.382-0.139-2.376-1.593-4.112
										C227.552,107.811,225.235,106.267,224.783,106.649z"/>
								</g>
								<g>
									<path style="fill-rule:evenodd;clip-rule:evenodd;fill:#5D382E;" d="M220.419,104.347
										c-0.107,0.579-2.884-0.241-5.107-0.664c-2.224-0.414-5.32-0.449-5.215-1.018c0.113-0.584,3.49-1.002,5.719-0.586
										C219.609,102.797,220.545,103.682,220.419,104.347z"/>
									<path style="fill-rule:evenodd;clip-rule:evenodd;fill:#1E1E77;" d="M214.081,110.187c-0.493,0.92-1.454,1.382-2.135,1.009
										c-0.67-0.369-0.8-1.421-0.309-2.348c0.509-0.916,1.466-1.364,2.139-0.996C214.448,108.218,214.584,109.266,214.081,110.187
										"/>
								</g>
							</g>
							<path style="fill-rule:evenodd;clip-rule:evenodd;fill:#5D382E;" d="M214.328,80.4c-1.904-3.007-5.79-3.573-8.147-2.901
								c-3.158,0.89-6.893,3.913-8.928,8.256c-2.043,4.357-1.341,8.267-1.144,12.112c0.093,1.733,0.05,3.543-0.532,5.995
								c-0.293,1.211-2.026,5.296,0.052,5.826c1.445,0.368,3.326-4.352,3.875-5.451c2.296-4.614,5.6-11.181,8.811-12.498
								c2.336-0.96,5.425,0.184,8.252,2.128c2.168,1.494,3.65,3.772,5.234,5.742c2.639,3.287,5.533,7.854,10.694,8.182
								c-0.588,2.613-2.714,5.784-4.334,9.244c-0.655,1.393-4.188,7.533-4.188,7.533c2.984,0.616,5.964-4.025,7.049-5.024
								c1.126-1.038,2.142-1.996,3.165-2.703c2.223-1.528,4.726-2.519,6.626-4.739c2.666-3.111,3.037-7.762,1.487-9.768
								c-0.859-1.116-2.824-1.994-4.555-2.216c6.129-6.822,3.371-15.707-3.142-20.141C227.073,74.853,219.857,76.831,214.328,80.4z"
								/>
							<g>
								<path style="fill:#B04470;" d="M193.252,98.149c0,0,1.325-0.708,2.983-0.201c2.652,1.293,6.879,3.364,11.568,5.755
									c-1.083,1.743-3.015,5.407-1.707,7.581c0.351,0.59,1.116,1.216,2.272,1.862c1.47,0.822,3.641,1.68,4.755,1.647
									c2.622-0.082,4.704-2.59,6.271-4.966c0.607,0.337,1.209,0.673,1.797,1.005c-1.202,2.576-2.252,5.665-0.948,7.941
									c0.557,0.969,2.422,2.369,3.894,3.192c1.154,0.645,2.087,0.969,2.776,0.961c2.678-0.026,4.887-4.01,5.716-5.719
									c0.143-0.306,0.071-0.669-0.18-0.896c-0.031-0.027-0.066-0.054-0.1-0.082c0.001-0.001,0.002-0.004,0.002-0.004
									c-0.015-0.012-0.036-0.03-0.051-0.041c-2.301-2.021-5.14-3.771-7.145-4.893c-0.871-0.487-1.769-0.957-2.665-1.399
									c-0.106-0.053-0.219-0.073-0.335-0.071c-0.785-0.44-1.583-0.884-2.401-1.332c-0.059-0.104-0.137-0.198-0.243-0.263
									c-0.841-0.529-1.714-1.05-2.586-1.538c-1.51-0.844-3.58-1.911-5.763-2.769c-6.188-3.21-12.03-6.097-15.156-7.64
									C194.144,95.653,193.252,98.149,193.252,98.149z M222.509,111.595c0.099,0.05,0.195,0.106,0.295,0.159
									c2.771,1.596,5.251,3.126,7.159,4.469c0.363,0.281,0.719,0.563,1.044,0.841c-1.367,2.648-2.95,4.339-4.111,4.349
									c-0.148,0.004-0.732-0.047-2.02-0.767c-1.528-0.855-3.012-2.09-3.318-2.622
									C220.608,116.363,221.481,113.804,222.509,111.595z M208.948,104.726c1.13,0.367,2.357,0.857,3.645,1.45
									c1.737,0.91,3.476,1.836,5.185,2.767c0.093,0.055,0.188,0.107,0.278,0.162c-1.346,2.031-3.069,4.114-4.977,4.176
									c-0.616,0.016-2.442-0.599-3.971-1.454c-1.288-0.72-1.64-1.193-1.714-1.321
									C206.795,109.511,207.406,107.276,208.948,104.726z"/>
							</g>
							<path style="fill:#BB78A2;" d="M211.816,124.598l0-0.003c0.008-0.351-0.27-0.636-0.62-0.646l0,0
								c-0.02,0-2.006-0.063-2.872-1.237c-0.454-0.613-0.534-1.464-0.239-2.528c0.094-0.339-0.102-0.689-0.441-0.783
								c-0.337-0.094-0.688,0.104-0.78,0.442c-0.407,1.467-0.258,2.687,0.443,3.63c1.245,1.671,3.754,1.743,3.861,1.745
								C211.518,125.227,211.808,124.947,211.816,124.598z"/>
						</g>
						<g>
							<path style="fill-rule:evenodd;clip-rule:evenodd;fill:#FFFFFF;" d="M195.892,142.471c-3.189,1.549-0.561,12.29,1.012,12.885
								c1.029,0.389,7.511-4.374,10.074-6.116c1.075-0.734,2.514-1.685,2.812-3.116c0.294-1.407-1.223-4.204-1.823-5.377
								c-0.597-1.169-2.168-0.706-3.6-0.432C203.437,140.493,197.356,141.898,195.892,142.471z"/>
							<path style="fill-rule:evenodd;clip-rule:evenodd;fill:#FFFFFF;" d="M195.107,142.262c1.496,3.075-6.595,10.267-8.111,9.85
								c-0.989-0.274-6.53-11.25-7.449-14.121c-0.384-1.207-0.919-2.796-0.322-4.126c0.584-1.309,3.311-2.706,4.434-3.312
								c1.11-0.604,2.018,0.663,2.928,1.704C187.182,132.934,194.336,140.965,195.107,142.262z"/>
							<path style="fill:#1E1E77;" d="M185.336,178.357c-1.022-2.856-2.555-10.394-2.33-11.283
								c0.37-1.472,9.483-16.635,9.509-17.229c0.032-0.77-1.029-1.465-1.009-2.154c0.028-0.777,2.854-3.915,3.439-4.116
								c0.125-0.019,0.234-0.008,0.338,0.019l-0.001-0.001c0.012,0.001,0.026,0.008,0.038,0.011
								c0.013,0.003,0.026,0.005,0.039,0.009l-0.001,0.003c0.099,0.029,0.202,0.073,0.301,0.151c0.4,0.468,1.277,4.601,0.906,5.284
								c-0.327,0.608-1.596,0.675-1.953,1.357c-0.276,0.526-0.012,18.214-0.43,19.675c-0.252,0.88-5.36,6.63-7.681,8.587
								C186.208,178.921,185.464,178.719,185.336,178.357z"/>
						</g>
					</g>
				</g>
				<g>
					<g>
						<g>
							<g>
								<polygon style="fill-rule:evenodd;clip-rule:evenodd;fill:#E2B1CE;" points="135.641,418.932 154.105,421.596 
									150.93,443.542 130.949,439.505 								"/>
								<path style="fill-rule:evenodd;clip-rule:evenodd;fill:#BB78A2;" d="M152.939,429.115
									c-9.757,4.946-18.996-2.741-18.996-2.741L152.939,429.115z"/>
							</g>
							<g>
								<path style="fill-rule:evenodd;clip-rule:evenodd;fill:#BCBCEA;" d="M153.421,432.584c-0.839-0.114-3.755-0.775-5.056,0.074
									c-1.353,0.88-1.425,2.754-1.979,5.052c-5.492-1.381-5.849-7.152-13.476-7.493c-2.06,5.436-3.416,11.932-4.697,18.539
									c14.777,3.303,30.233,6.156,45.277,9.285c-0.001-1.565-0.136-3.02-0.515-4.191c-1.164-3.557-3.85-5.726-7.062-7.562
									c-4.323-2.469-9.47-4.976-11.32-9.371C154.077,435.688,153.828,434.285,153.421,432.584z"/>
								<g>
									<path style="fill-rule:evenodd;clip-rule:evenodd;fill:#282894;" d="M149.205,438.752c0.206,0.937,2.451,0.327,4.044,0.394
										c0.936,0.038,3.089,0.555,3.418-0.244c0.599-1.425-2.669-2.017-4.113-1.948
										C151.155,437.027,148.897,437.38,149.205,438.752z"/>
									<path style="fill-rule:evenodd;clip-rule:evenodd;fill:#282894;" d="M150.73,442.539c0.56,1.201,2.964,0.406,4.559,0.378
										c0.836-0.014,1.759,0.054,2.564,0.107c0.771,0.053,2.137,0.42,2.229-0.229c0.194-1.395-2.045-1.962-3.665-2.101
										C154.367,440.508,149.897,440.756,150.73,442.539z"/>
								</g>
								<path style="fill:#282894;" d="M162.106,444.121c1.272,0.754,2.575,1.467,3.807,2.167c3.212,1.836,5.898,4.005,7.062,7.562
									c0.379,1.17,0.514,2.626,0.515,4.191c-6.756-1.406-13.596-2.753-20.424-4.117
									C154.672,447.909,158.63,445.264,162.106,444.121z"/>
								<path style="fill:#282894;" d="M137.323,450.721c-3.057-0.642-6.103-1.292-9.109-1.965c0.807-4.19,1.655-8.329,2.689-12.188
									C133.599,438.515,137.933,442.907,137.323,450.721z"/>
							</g>
						</g>
						<g>
							<g>
								<polygon style="fill-rule:evenodd;clip-rule:evenodd;fill:#E2B1CE;" points="101.795,427.21 120.42,426.175 
									121.643,448.316 101.258,448.304 								"/>
								<path style="fill-rule:evenodd;clip-rule:evenodd;fill:#BB78A2;" d="M120.763,433.776
									c-8.588,6.776-19.163,1.065-19.163,1.065L120.763,433.776z"/>
							</g>
							<g>
								<path style="fill-rule:evenodd;clip-rule:evenodd;fill:#CECEF4;" d="M121.92,437.082c-0.845,0.054-3.835-0.018-4.942,1.071
									c-1.152,1.13-0.853,2.981-0.942,5.343c-5.656-0.269-7.146-5.856-14.691-4.684c-0.945,5.736-0.992,12.372-0.943,19.102
									c15.138,0.319,30.853,0.064,46.219,0.16c-0.31-1.533-0.73-2.934-1.333-4.006c-1.843-3.257-4.905-4.853-8.416-6.018
									c-4.725-1.566-10.266-3.008-12.947-6.951C123.177,439.995,122.655,438.668,121.92,437.082z"/>
								<g>
									<path style="fill-rule:evenodd;clip-rule:evenodd;fill:#2F2FA7;" d="M119.005,443.96c0.387,0.877,2.468-0.164,4.042-0.412
										c0.925-0.148,3.138-0.066,3.303-0.914c0.306-1.515-3.015-1.45-4.417-1.097C120.576,441.884,118.433,442.677,119.005,443.96
										z"/>
									<path style="fill-rule:evenodd;clip-rule:evenodd;fill:#2F2FA7;" d="M121.248,447.372c0.786,1.066,2.986-0.188,4.543-0.53
										c0.817-0.179,1.735-0.295,2.534-0.401c0.766-0.1,2.178-0.011,2.14-0.665c-0.085-1.406-2.393-1.519-4.008-1.336
										C124.413,444.663,120.08,445.788,121.248,447.372z"/>
								</g>
								<path style="fill:#2F2FA7;" d="M132.713,446.676c1.396,0.488,2.814,0.929,4.16,1.373c3.512,1.165,6.573,2.761,8.416,6.018
									c0.603,1.072,1.022,2.473,1.333,4.006c-6.901-0.044-13.872-0.014-20.835-0.002
									C126.173,451.857,129.531,448.483,132.713,446.676z"/>
								<path style="fill:#2F2FA7;" d="M109.721,458.041c-3.124-0.026-6.238-0.061-9.318-0.127
									c-0.036-4.267-0.022-8.492,0.229-12.479C103.66,446.81,108.776,450.26,109.721,458.041z"/>
							</g>
						</g>
						<g>
							<path style="fill:#2F2FA7;" d="M132.579,264.571c-0.015,0.115-0.042,0.229-0.043,0.344
								c-0.083,9.319,0.062,18.639,0.276,27.953c0.201,8.713,0.533,17.421,0.403,26.138c-0.066,4.377-0.367,8.743-0.657,13.11
								c-0.28,4.207-0.735,8.398-1.068,12.6c-0.349,4.402-0.767,8.798-1.111,13.2c-0.225,2.882-0.367,5.769-0.551,8.654
								c-0.215,3.365-0.44,6.73-0.653,10.095c-0.101,1.603-0.16,3.208-0.256,4.811c-0.24,4.007-0.351,8.022-0.575,12.031
								c-0.259,4.649-0.58,9.295-0.881,13.941c-0.163,2.524,0.433,22.73,0.267,25.253c-0.081,1.228-0.2,1.39-1.434,1.401
								c-3.052,0.027-6.102,0.157-9.152,0.251c-7.024,0.216-14.047,0.488-21.076,0.499c-1.83,0.003-1.865-0.014-1.926-1.863
								c-0.203-6.14-1.379-29.955-1.581-36.095c-0.189-5.74-0.313-11.48-0.458-17.22c-0.205-8.153-0.238-16.305-0.211-24.459
								c0.02-6.108,0.406-12.196,0.921-18.279c0.471-5.563,1.192-11.095,1.892-16.631c0.514-4.064,0.901-8.142,0.791-12.25
								c-0.103-3.855-0.372-7.701-0.786-11.532c-0.475-4.39-1.012-8.773-1.575-13.153c-0.491-3.822-1.087-7.631-1.579-11.453
								c-0.61-4.737-1.216-9.473-1.637-14.235c-0.575-6.499-0.521-13.003-0.35-19.505c0.146-5.577,0.573-11.144,1.397-16.671
								c0.053-0.357,0.107-0.716,0.194-1.067c0.2-0.813,0.627-1.002,1.265-0.492c0.247,0.197,0.41,0.306,0.723,0.234
								c2.005-0.462,4.06-0.533,6.097-0.684c3.522-0.261,7.054-0.391,10.581-0.576c9.957-0.522,19.92-0.236,29.879-0.132
								c6.222,0.065,12.442,0.361,18.666,0.461c0.762,0.012,1.522,0.138,2.283,0.138c0.705,0.001,1.118,0.273,1.326,0.957
								c0.269,0.883,0.581,1.754,0.909,2.617c2.95,7.773,5.954,15.526,8.852,23.318c5.139,13.817,9.994,27.733,14.558,41.752
								c2.002,6.148,4.137,12.253,5.625,18.558c1.146,4.858,1.342,9.773,0.897,14.724c-0.571,6.355-2.158,12.493-4.025,18.568
								c-3.2,10.409-6.929,20.635-10.663,30.859c-5.306,14.527-13.699,42.477-19.361,56.866c-0.8,2.033-0.709,2.225-2.843,1.937
								c0,0-21.18-3.233-25.316-3.172c-1.639,0.024-1.695-0.025-1.457-1.583c0.895-5.875,3.859-21.892,4.801-27.758
								c1.836-11.431,4.488-22.688,7.331-33.902c1.205-4.752,2.847-9.377,4.132-14.105c1.93-7.1,4.379-14.03,6.73-20.993
								c0.912-2.702,1.774-5.416,2.274-8.237c0.666-3.755,0.291-7.328-1.437-10.778c-2.429-4.849-5.136-9.553-7.477-14.446
								c-2.894-6.051-5.877-12.061-8.424-18.271c-1.28-3.122-2.373-6.315-3.488-9.5c-0.264-0.754-0.557-1.499-0.837-2.248
								C132.701,264.557,132.64,264.564,132.579,264.571z"/>
							<g>
								<path style="fill:#1E1E77;" d="M102.878,387.247c-0.153-7.711,0.062-15.419,0.368-23.125
									c0.164-4.133,0.217-8.27,0.321-12.405c0.017-0.682,0.026-1.366,0.063-2.047c0.213-3.848,0.426-7.696,0.653-11.543
									c0.17-2.885,0.33-5.772,0.553-8.653c0.297-3.842,0.639-7.68,1.128-11.504c0.622-4.858,1.236-9.716,1.829-14.578
									c0.452-3.707,0.875-7.418,0.827-11.162c-0.07-5.393-0.736-10.733-1.549-16.052c-1.263-8.254-2.859-16.456-3.876-24.749
									c-0.479-3.906-0.924-7.818-1.05-11.751c-0.11-3.41-0.031-6.821,0.137-10.236c0.172-3.483,0.667-6.883,1.449-10.222
									c-1.496,0.078-2.991,0.163-4.484,0.274c-2.037,0.151-4.092,0.221-6.097,0.684c-0.313,0.072-0.477-0.036-0.723-0.234
									c-0.638-0.51-1.065-0.321-1.265,0.492c-0.086,0.35-0.14,0.709-0.194,1.067c-0.823,5.527-1.25,11.094-1.397,16.671
									c-0.171,6.502-0.224,13.006,0.35,19.505c0.421,4.762,1.027,9.498,1.637,14.235c0.492,3.822,1.088,7.631,1.579,11.453
									c0.563,4.38,1.1,8.763,1.575,13.153c0.414,3.832,0.684,7.677,0.786,11.532c0.109,4.107-0.277,8.186-0.791,12.25
									c-0.701,5.536-1.421,11.068-1.892,16.631c-0.515,6.084-0.901,12.172-0.921,18.279c-0.027,8.154,0.006,16.306,0.211,24.46
									c0.144,5.74,0.269,11.48,0.458,17.22c0.202,6.141,1.379,29.955,1.581,36.095c0.061,1.849,0.096,1.866,1.926,1.863
									c3.033-0.005,6.297-0.145,9.328-0.221c-0.386-5.069-1.76-27.742-2.034-32.817
									C103.102,396.963,102.974,392.104,102.878,387.247z"/>
								<path style="fill:#1E1E77;" d="M157.605,360.462c2.56-7.408,4.914-14.87,6.42-22.576c0.71-3.632,1.277-7.291,1.222-10.994
									c-0.082-5.518-1.335-10.818-3.327-15.955c-2.318-5.977-5.375-11.589-8.64-17.075c-4.363-7.331-8.237-14.893-11.568-22.746
									c-1.947-4.59-3.698-9.246-5.244-13.982c-0.287-0.879-0.577-1.759-1.053-2.557c-0.321-0.538-0.739-0.989-1.444-0.876
									c-0.69,0.11-0.99,0.625-1.142,1.249c-0.047,0.195-0.095,0.393-0.108,0.591c-0.072,1.121-0.241,2.236-0.2,3.365
									c0.068,1.883,0.124,3.767,0.188,5.651c0.018-0.002,0.036-0.004,0.054-0.006c0.28,0.749,0.573,1.493,0.837,2.248
									c1.115,3.184,2.208,6.378,3.488,9.5c2.546,6.21,5.529,12.22,8.424,18.27c2.341,4.893,5.048,9.597,7.477,14.446
									c1.728,3.449,2.103,7.023,1.437,10.778c-0.5,2.821-1.362,5.535-2.274,8.237c-2.351,6.963-4.8,13.893-6.73,20.994
									c-1.285,4.727-2.927,9.352-4.132,14.105c-2.844,11.214-5.495,22.471-7.331,33.902c-0.943,5.867-3.907,21.884-4.801,27.758
									c-0.237,1.558-0.178,1.47,1.457,1.583c1.758,0.121,5.296,0.503,5.296,0.503c3.029-8.216,8.213-27.132,10.833-35.496
									C150.007,380.951,154.037,370.786,157.605,360.462z"/>
								<g>
									<path style="fill-rule:evenodd;clip-rule:evenodd;fill:#1E1E77;" d="M166.034,239.286
										c-7.696,1.448-14.067-4.221-14.234-11.527C153.846,232.476,160.893,237.334,166.034,239.286z"/>
									<path style="fill-rule:evenodd;clip-rule:evenodd;fill:#1E1E77;" d="M104.604,239.286
										c7.696,1.448,14.067-4.221,14.234-11.527C116.791,232.476,109.745,237.334,104.604,239.286z"/>
									<path style="fill-rule:evenodd;clip-rule:evenodd;fill:#1E1E77;" d="M133.58,249.772
										c-0.618-9.025-0.658-27.081-0.599-26.959c1.481,7.195,3.801,15.017,3.747,22.082
										C136.716,246.661,136.863,250.453,133.58,249.772z"/>
								</g>
							</g>
						</g>
					</g>
					<g>
						<path style="fill-rule:evenodd;clip-rule:evenodd;fill:#B04470;" d="M90.717,219.046c-0.067,1.069,0.818,1.989,1.973,2.059
							l69.39,4.184c1.156,0.07,2.145-0.738,2.212-1.807l0.254-4.083c0.067-1.07-0.814-1.991-1.971-2.061l-69.391-4.184
							c-1.155-0.07-2.147,0.739-2.213,1.809L90.717,219.046z"/>
						<g>
							<path style="fill-rule:evenodd;clip-rule:evenodd;fill:#FFFFFF;" d="M141.836,223.873c-0.033,0.681,0.505,1.262,1.2,1.291
								c0.693,0.031,1.282-0.5,1.314-1.184l0.335-7.451c0.03-0.685-0.505-1.259-1.199-1.291c-0.695-0.031-1.282,0.499-1.314,1.184
								L141.836,223.873z"/>
							<path style="fill-rule:evenodd;clip-rule:evenodd;fill:#FFFFFF;" d="M126.293,223.135c-0.033,0.68,0.507,1.261,1.202,1.294
								c0.692,0.031,1.281-0.502,1.311-1.182l0.334-7.454c0.033-0.68-0.503-1.261-1.199-1.289c-0.693-0.03-1.281,0.498-1.313,1.179
								L126.293,223.135z"/>
							<path style="fill-rule:evenodd;clip-rule:evenodd;fill:#FFFFFF;" d="M131,215.614c-0.001,0.011-0.005,0.021-0.005,0.034
								c0,0,0.001,0.003,0.003,0.003c0,0-0.004,0.018-0.005,0.026l-0.315,6.877c0.002,0.044,0.005,0.085,0.011,0.124
								c-0.025,0.078-0.041,0.163-0.046,0.249c-0.039,0.627,0.431,1.172,1.054,1.209l6.816,0.427
								c0.625,0.038,1.168-0.437,1.208-1.068c0-0.012-0.003-0.017-0.005-0.031c0.031-0.085,0.052-0.178,0.054-0.273l0.311-6.886
								c-0.003-0.017-0.004-0.035-0.003-0.053c0.001-0.014,0.005-0.024,0.005-0.035c0.037-0.631-0.432-1.173-1.059-1.211
								l-6.822-0.427c-0.555-0.037-1.04,0.334-1.171,0.854C131.013,215.49,131.006,215.549,131,215.614 M133.034,221.928
								l0.066-1.492l4.454,0.283l-0.067,1.49L133.034,221.928z M137.712,217.216l-0.053,1.218l-4.455-0.277l0.057-1.22
								L137.712,217.216z"/>
						</g>
					</g>
				</g>
				<g>
					<g>
						<path style="fill-rule:evenodd;clip-rule:evenodd;fill:#E2B1CE;" d="M113.141,243.073c-1.755,1.909-4.138,9.227-6.645,8.513
							c-2.722-0.776,0.847-7.439,1.07-9.441c-1.674,2.327-3.916,7.614-5.489,7.407c-1.774-0.235-1.398-3.324-0.943-5.307
							c0.486-2.119,1.534-4.023,1.778-5.217c-1.35,1.698-3.284,5.632-5.279,4.791c-1.946-0.819,0.421-5.14,0.93-6.987
							c0.674-2.437,1.709-5.409,1.666-7.093c-0.029-1.277-1.237-3.012-2.367-4.668c-2.968-4.347-4.858-9.791-3.936-14.943
							l15.712,5.231c1.029,2.631,2.869,4.561,5.484,7.027c1.69,1.598,4.516,3.675,5.299,5.883c1.168,3.301,0.042,10.568-2.068,15.53
							c-0.871,2.049-3.532,7.639-5.193,7.271C110.339,250.441,112.871,244.961,113.141,243.073"/>
						<path style="fill-rule:evenodd;clip-rule:evenodd;fill:#BB78A2;" d="M107.59,251.421c-3.617,1.612-1.795-4.515-1.021-6.972
							c1.213-3.862,2.995-7.927,3.549-10.411c0.886,3.767-3.528,11.031-3.509,15.136
							C106.613,250.001,106.808,250.893,107.59,251.421"/>
						<path style="fill-rule:evenodd;clip-rule:evenodd;fill:#BB78A2;" d="M114.152,250.734c-0.858,0.629-1.285,0.285-1.66,0.064
							c-1.439-0.843-0.196-5.076,0.41-6.999c1.216-3.86,3.225-7.972,3.783-10.456c0.883,3.768-3.53,11.03-3.512,15.138
							C113.177,249.307,113.369,250.204,114.152,250.734"/>
						<path style="fill-rule:evenodd;clip-rule:evenodd;fill:#BB78A2;" d="M97.945,243.912c-2.004-0.218-0.886-4.287-0.34-6.456
							c0.31-1.236,0.752-2.518,1.177-3.812c0.421-1.287,1.155-2.715,1.178-3.813c0.039-1.806-2.838-4.997-3.724-6.868
							c-1.907-4.027-3.014-8.344-2.312-12.837c5.252,1.583,10.206,3.109,15.711,5.23c-0.734,0.596-4.928,0.491-7.859-0.662
							c-2.335-0.917-4.173-1.816-5.535-2.996c-0.036,4.514,0.981,9.165,2.673,13.602c0.848,2.228,2.001,3.436,1.377,5.894
							C99.311,235.085,96.366,242.258,97.945,243.912"/>
						<path style="fill-rule:evenodd;clip-rule:evenodd;fill:#BB78A2;" d="M103.578,248.556c-2.406,2.919-3.072-0.589-3.024-1.89
							c0.175-4.715,4.026-9.1,4.663-15.682c0.459,1.007,0.311,1.797,0.128,2.918c-0.487,2.99-2.516,7.756-3.309,10.92
							C101.673,246.271,101.514,247.949,103.578,248.556"/>
					</g>
					<g>
						<path style="fill-rule:evenodd;clip-rule:evenodd;fill:#BCBCEA;" d="M108.516,175.739c2.604,13.413,5.348,26.802,6.663,40.459
							c-8.009,2.703-16.31,3.902-24.681,4.751c-3.253-11.052-6.47-21.396-8.692-32.807c-0.996-5.119-1.965-10.56-2.287-16.732
							c-0.295-5.641-0.249-12.124,3.1-17.742c4.8-8.053,14.57-11.882,20.927-14.059c11.63-3.984,22.257-5.755,34.1-7.474
							c7.517-1.092,15.013-1.803,23.204-1.735c3.85,0.031,7.243,0.457,10.532,2.316c6.382,3.607,7.207,10.643,2.489,16.571
							c-4.094,5.145-10.44,8.371-15.615,10.797C142.726,167.361,123.696,172.411,108.516,175.739z"/>
						<polygon style="fill:#A4A4E4;" points="108.516,175.739 106.691,162.739 112.014,174.956 						"/>
					</g>
				</g>
			</g>
			<g>
				<g>
					<rect x="64.817" y="302.739" style="fill:#A4A4E4;" width="101.049" height="13.74"/>
					<g>
						<g>
							<polygon style="fill:#FFFFFF;" points="253.867,311.452 253.867,455.385 248.087,455.385 243.68,309.743 							"/>
							<polygon style="fill:#A4A4E4;" points="253.867,309.742 253.867,331.547 244.368,331.547 243.68,309.742 							"/>
						</g>
						<g>
							<polygon style="fill:#FFFFFF;" points="327.887,311.452 327.887,457.469 322.108,457.469 317.701,309.743 							"/>
							<polygon style="fill:#6879B3;" points="327.887,309.742 327.887,331.547 318.39,331.547 317.701,309.742 							"/>
						</g>
					</g>
					<g>
						<g>
							<polygon style="fill:#FFFFFF;" points="148.621,311.502 158.801,309.797 154.39,457.405 148.621,457.405 							"/>
							<polygon style="fill:#A4A4E4;" points="158.105,331.583 158.799,309.794 148.618,311.503 148.618,331.583 							"/>
						</g>
						<g>
							<polygon style="fill:#FFFFFF;" points="64.82,311.502 74.996,309.797 70.59,457.405 64.82,457.405 							"/>
							<polygon style="fill:#A4A4E4;" points="74.304,331.583 74.996,309.794 64.817,311.503 64.817,331.583 							"/>
						</g>
					</g>
					<rect x="165.867" y="302.739" style="fill:#A4A4E4;" width="162.021" height="13.74"/>
					<path style="fill:#FFFFFF;" d="M57.189,300.901c0,1.016,0.827,1.839,1.846,1.839h272.227c1.02,0,1.847-0.823,1.847-1.839
						c0-1.018-0.827-1.839-1.847-1.839H59.034C58.016,299.061,57.189,299.883,57.189,300.901"/>
				</g>
				<g>
					<g>
						<g>
							<path style="fill-rule:evenodd;clip-rule:evenodd;fill:#A4A4E4;" d="M230.165,271.726c-0.14,4.121-1.049,10.829-1.554,16.012
								c-0.387,4.015-0.959,6.216,1.684,7.565c0.501,0.256,1.38,0.215,1.724,0.922c-9.128-0.093-18.626-0.045-28.096-0.006
								c-2.655,0.013-7.842,0.439-8.487-1.273c-0.483-1.289,0.723-4.514,1.029-5.944c1.313-6.174,2.414-12.167,3.851-17.904
								C210.171,271.195,220.188,271.483,230.165,271.726"/>
							<path style="fill-rule:evenodd;clip-rule:evenodd;fill:#8D8DD4;" d="M209.057,295.567l-12.45,0.004
								c-0.574-0.016-0.938-0.33-0.844-0.944c0.184-1.24,3.309-17.54,4.553-23.529c0-0.094-0.005-0.179-0.136-0.166
								c-0.836,0.297-2.499,0.001-3.171-0.004c-0.986,5.051-4.802,21.818-4.871,23.586c-0.071,1.769,0.324,3.193,1.737,4.055
								c0.547,0.334,1.18,0.449,1.85,0.479c0.053,0.003,0.103,0.014,0.156,0.014l13.179-0.006c1.122-0.001,2.036-0.781,2.033-1.744
								C211.092,296.346,210.181,295.567,209.057,295.567"/>
							<path style="fill-rule:evenodd;clip-rule:evenodd;fill:#C7C7F2;" d="M234.616,297.753c0,0.712-0.536,1.284-1.198,1.285
								l-23.814,0.01c-0.662,0-1.197-0.573-1.197-1.284v-0.913c0-0.708,0.534-1.284,1.197-1.284l23.814-0.011
								c0.659,0,1.196,0.573,1.196,1.285L234.616,297.753z"/>
						</g>
						<g>
							<path style="fill:#A4A4E4;" d="M157.515,257.661l-0.027-59.374c-0.002-8.429,6.825-15.263,15.256-15.266l-7.39,0.004
								c-8.427,0.004-15.259,6.839-15.254,15.266l0.025,59.372c0.006,8.429,6.841,15.258,15.271,15.255l7.387-0.003
								C164.354,272.916,157.517,266.087,157.515,257.661"/>
							<path style="fill:#8D8DD4;" d="M263.359,182.981l-7.389,0.004l-83.226,0.036c-8.43,0.004-15.257,6.837-15.257,15.266
								l0.031,59.373c0.002,8.428,6.837,15.256,15.266,15.254l83.223-0.038l7.39-0.004c8.431-0.003,15.26-6.839,15.256-15.266
								l-0.027-59.372C278.626,189.807,271.79,182.976,263.359,182.981"/>
							<path style="fill:#FFFFFF;" d="M260.991,185.111l-6.979,0.005l-78.582,0.034c-7.96,0.005-14.407,6.456-14.405,14.417
								l0.025,56.062c0.005,7.958,6.458,14.405,14.418,14.404l78.584-0.037l6.977-0.002c7.958-0.004,14.408-6.458,14.404-14.415
								l-0.025-56.062C275.405,191.558,268.952,185.109,260.991,185.111"/>
						</g>
					</g>
					<g>
						<path style="fill:#CECEF4;" d="M268.611,262.121c0,1.466-1.189,2.655-2.655,2.655H171.88c-1.466,0-2.655-1.189-2.655-2.655
							v-67.375c0-1.466,1.189-2.655,2.655-2.655h94.076c1.466,0,2.655,1.189,2.655,2.655V262.121z"/>
						<g>
							<g>
								<path style="fill:#A4A4E4;" d="M260.272,202.574c-1.694,0-3.073-1.379-3.073-3.073c0-1.694,1.379-3.073,3.073-3.073
									c1.694,0,3.073,1.378,3.073,3.073C263.345,201.195,261.966,202.574,260.272,202.574z M260.272,198.131
									c-0.755,0-1.37,0.614-1.37,1.369c0,0.755,0.614,1.37,1.37,1.37c0.755,0,1.37-0.615,1.37-1.37
									C261.641,198.745,261.027,198.131,260.272,198.131z"/>
								<path style="fill:#A4A4E4;" d="M264.199,203.951c-0.194,0-0.389-0.066-0.549-0.201l-2.377-2.009
									c-0.359-0.304-0.404-0.841-0.101-1.2c0.303-0.359,0.841-0.404,1.2-0.101l2.377,2.009c0.359,0.304,0.404,0.841,0.101,1.2
									C264.682,203.848,264.441,203.951,264.199,203.951z"/>
							</g>
							<g>
								<path style="fill:#A4A4E4;" d="M188.787,202.574h-4.443c-0.47,0-0.852-0.381-0.852-0.852v-4.442
									c0-0.47,0.381-0.852,0.852-0.852h4.443c0.47,0,0.852,0.381,0.852,0.852v4.442
									C189.639,202.192,189.258,202.574,188.787,202.574z M185.196,200.87h2.74v-2.739h-2.74V200.87z"/>
								<g>
									<path style="fill:#A4A4E4;" d="M178.541,202.574c-0.218,0-0.436-0.083-0.602-0.249l-4.443-4.442
										c-0.333-0.333-0.333-0.872,0-1.204s0.872-0.333,1.204,0l4.443,4.443c0.333,0.333,0.333,0.872,0,1.204
										C178.977,202.49,178.759,202.574,178.541,202.574z"/>
									<path style="fill:#A4A4E4;" d="M174.098,202.574c-0.218,0-0.436-0.083-0.602-0.249c-0.333-0.333-0.333-0.872,0-1.204
										l4.443-4.443c0.333-0.333,0.872-0.333,1.204,0c0.333,0.333,0.333,0.872,0,1.204l-4.443,4.442
										C174.534,202.49,174.316,202.574,174.098,202.574z"/>
								</g>
							</g>
						</g>
						<g>
							<path style="fill:#A4A4E4;" d="M263.012,258.721h-18.208c-0.47,0-0.852-0.381-0.852-0.852v-43.977
								c0-0.47,0.381-0.852,0.852-0.852h18.208c0.47,0,0.852,0.381,0.852,0.852v43.977
								C263.863,258.339,263.482,258.721,263.012,258.721z M245.655,257.017h16.505v-42.273h-16.505V257.017z"/>
							<path style="fill:#A4A4E4;" d="M263.012,258.721c-0.334,0-0.652-0.198-0.787-0.527l-18.208-43.977
								c-0.18-0.435,0.026-0.933,0.461-1.113c0.435-0.181,0.933,0.027,1.113,0.461l18.208,43.977
								c0.18,0.435-0.026,0.933-0.461,1.112C263.231,258.7,263.121,258.721,263.012,258.721z"/>
							<path style="fill:#A4A4E4;" d="M244.803,258.721c-0.108,0-0.219-0.021-0.325-0.065c-0.435-0.18-0.641-0.678-0.461-1.112
								l18.208-43.977c0.179-0.435,0.678-0.642,1.112-0.461c0.435,0.18,0.641,0.678,0.461,1.113l-18.208,43.977
								C245.455,258.523,245.137,258.721,244.803,258.721z"/>
						</g>
						<g>
							<path style="fill:#A4A4E4;" d="M192.785,258.721h-18.208c-0.47,0-0.852-0.381-0.852-0.852v-43.977
								c0-0.47,0.381-0.852,0.852-0.852h18.208c0.47,0,0.852,0.381,0.852,0.852v43.977
								C193.637,258.339,193.255,258.721,192.785,258.721z M175.429,257.017h16.504v-42.273h-16.504V257.017z"/>
							<path style="fill:#A4A4E4;" d="M192.785,258.721c-0.334,0-0.652-0.198-0.787-0.527l-18.208-43.977
								c-0.18-0.435,0.027-0.933,0.461-1.113c0.435-0.181,0.933,0.027,1.113,0.461l18.208,43.977
								c0.18,0.435-0.027,0.933-0.461,1.112C193.004,258.7,192.894,258.721,192.785,258.721z"/>
							<path style="fill:#A4A4E4;" d="M174.577,258.721c-0.109,0-0.219-0.021-0.325-0.065c-0.435-0.18-0.641-0.678-0.461-1.112
								l18.208-43.977c0.18-0.435,0.678-0.642,1.112-0.461c0.435,0.18,0.641,0.678,0.461,1.113l-18.208,43.977
								C175.228,258.523,174.911,258.721,174.577,258.721z"/>
						</g>
						<g>
							<path style="fill:#A4A4E4;" d="M234.518,216.541h-31.686c-0.47,0-0.852-0.381-0.852-0.852s0.381-0.852,0.852-0.852h31.686
								c0.47,0,0.852,0.381,0.852,0.852S234.988,216.541,234.518,216.541z"/>
							<path style="fill:#A4A4E4;" d="M234.518,230.562h-31.686c-0.47,0-0.852-0.381-0.852-0.852c0-0.47,0.381-0.852,0.852-0.852
								h31.686c0.47,0,0.852,0.381,0.852,0.852C235.37,230.181,234.988,230.562,234.518,230.562z"/>
							<path style="fill:#A4A4E4;" d="M234.518,244.698h-31.686c-0.47,0-0.852-0.381-0.852-0.852c0-0.47,0.381-0.852,0.852-0.852
								h31.686c0.47,0,0.852,0.381,0.852,0.852C235.37,244.316,234.988,244.698,234.518,244.698z"/>
							<path style="fill:#A4A4E4;" d="M234.518,258.72h-31.686c-0.47,0-0.852-0.381-0.852-0.852c0-0.47,0.381-0.852,0.852-0.852
								h31.686c0.47,0,0.852,0.381,0.852,0.852C235.37,258.338,234.988,258.72,234.518,258.72z"/>
						</g>
						<path style="fill:#FFFFFF;" d="M253.891,201.69c0,2.623-2.128,4.75-4.75,4.75h-52.156c-2.625,0-4.749-2.128-4.749-4.75l0,0
							c0-2.623,2.125-4.75,4.749-4.75h52.156C251.763,196.94,253.891,199.067,253.891,201.69L253.891,201.69z"/>
					</g>
				</g>
			</g>
			<g>
				<g>
					<g>
						<g>
							<path style="fill:#171458;" d="M322.129,443.812c0-4.184,3.406-7.588,7.587-7.588h89.041c4.183,0,7.588,3.403,7.588,7.588
								v6.342h4.243v-6.342c0-6.522-5.307-11.83-11.831-11.83h-89.041c-6.523,0-11.827,5.308-11.827,11.83v6.342h4.24V443.812z"/>
							<g>
								<path style="fill:#171458;" d="M325.12,458.015c3.994,0,7.233-3.239,7.233-7.233h-14.464
									C317.889,454.777,321.126,458.015,325.12,458.015z"/>
								<path style="fill:#FFFFFF;" d="M325.12,443.551c-3.993,0-7.231,3.237-7.231,7.232h14.464
									C332.353,446.788,329.114,443.551,325.12,443.551z"/>
							</g>
							<g>
								<rect x="345.912" y="432.512" style="fill:#171458;" width="4.241" height="17.642"/>
								<g>
									<path style="fill:#171458;" d="M353.143,458.015c3.995,0,7.232-3.239,7.232-7.233h-14.463
										C345.912,454.777,349.148,458.015,353.143,458.015z"/>
									<path style="fill:#2F2FA7;" d="M353.143,443.551c-3.994,0-7.231,3.237-7.231,7.232h14.463
										C360.375,446.788,357.138,443.551,353.143,443.551z"/>
								</g>
							</g>
							<g>
								<rect x="398.23" y="432.512" style="fill:#171458;" width="4.241" height="17.642"/>
								<g>
									<path style="fill:#171458;" d="M405.46,458.015c3.996,0,7.233-3.239,7.233-7.233H398.23
										C398.23,454.777,401.468,458.015,405.46,458.015z"/>
									<path style="fill:#2F2FA7;" d="M405.46,443.551c-3.992,0-7.231,3.237-7.231,7.232h14.464
										C412.693,446.788,409.456,443.551,405.46,443.551z"/>
								</g>
							</g>
							<g>
								<path style="fill:#171458;" d="M433.543,458.015c3.994,0,7.234-3.239,7.234-7.233h-14.465
									C426.313,454.777,429.548,458.015,433.543,458.015z"/>
								<path style="fill:#2F2FA7;" d="M433.543,443.551c-3.995,0-7.231,3.237-7.231,7.232h14.465
									C440.777,446.788,437.538,443.551,433.543,443.551z"/>
							</g>
						</g>
						<g>
							<g>
								<path style="fill-rule:evenodd;clip-rule:evenodd;fill:#171458;" d="M404.301,363.538c-0.01,7.41-7.304,7.806-15.95,7.806
									c-8.929,0-18.479,0-27.489,0c-6.975,0-12.918-0.182-14.932-4.751c-0.189-0.426-0.449-1.136-0.511-1.695
									c-0.085-0.791-0.295-1.183,0.511-1.359c0.261-0.056,0.525-0.173,0.678-0.169
									C364.941,363.785,385.786,363.718,404.301,363.538z"/>
							</g>
							<path style="fill:#171458;" d="M381.99,437.766c0,2.264-1.837,4.101-4.101,4.101h-6.353c-2.263,0-4.097-1.837-4.097-4.101
								v-35.831c0-2.264,1.834-4.097,4.097-4.097h6.353c2.264,0,4.101,1.834,4.101,4.097V437.766z"/>
							<rect x="371.386" y="376.362" style="fill:#171458;" width="6.716" height="24.039"/>
							<rect x="367.439" y="371.344" style="fill:#171458;" width="14.788" height="6.315"/>
							<path style="fill:#171458;" d="M409.093,379.781h-22.57l-0.206-0.043c-1.795-0.36-5.807-2.325-6.593-2.715l1.882-3.799
								c1.65,0.819,4.305,2.024,5.37,2.312h22.117V379.781z"/>
						</g>
					</g>
					<g>
						<g>
							<path style="fill-rule:evenodd;clip-rule:evenodd;fill:#A4A4E4;" d="M359.628,236.276c2.324-0.305,6.548,0,9.674,0
								c18.641,0,38.028,0,57.011,0c3.112,0,5.949-0.445,8.148,0.339c1.969,0.704,3.78,2.329,4.412,4.072
								c0.74,2.051,0.205,5.145,0,7.636c-2.381,28.709-4.799,54.992-7.127,83.655c-0.82,10.068-4.472,17.598-9.842,23.076
								c-2.807,2.868-6.035,5.23-10.011,6.618c-4.059,1.419-9.194,1.433-14.765,1.697c-9.464,0.453-21.271,1.018-31.899,1.018
								c-15.391,0-34.244,0.102-48.36-0.168c-2.678-0.052-5.611-0.003-8.314,0c-2.823,0-5.417,0.402-7.638-0.171
								c-2.508-0.648-4.396-2.391-5.088-4.752c-1.044-3.535,0.627-7.359,3.9-8.823c2.038-0.913,5.342-0.738,8.484-0.849
								c5.826-0.205,11.976-0.401,17.988-0.678c3.805-0.179,7.916-0.202,10.351-1.358c3.301-1.566,5.79-4.727,7.295-8.316
								c1.509-3.597,1.725-7.944,2.207-13.233c2.431-26.67,4.331-51.841,6.787-78.563c0.22-2.411,0.338-4.777,1.019-6.619
								C354.607,238.835,356.05,236.747,359.628,236.276z"/>
						</g>
						<g>
							<path style="fill-rule:evenodd;clip-rule:evenodd;fill:#FFFFFF;" d="M431.063,236.276c3.047-0.402,6.743,1.465,7.809,4.411
								c1.076,2.985-0.053,7.678-0.342,11.032c-2.215,25.883-4.507,51.583-6.617,77.036c-0.325,3.933-0.559,7.447-1.357,10.688
								c-2.196,8.924-7.824,16.84-15.104,20.704c-2.548,1.351-5.668,2.24-9.331,2.714c-6.995,0.905-14.964,0.866-22.569,1.188
								c-3.675,0.155-8.015,0.822-11.199,0c-3.094-0.8-5.543-3.438-5.43-7.127c0.094-3.131,1.861-5.381,4.243-6.447
								c2.086-0.934,5.69-0.753,8.483-0.849c6.116-0.214,11.839-0.391,17.988-0.678c3.461-0.161,7.059-0.201,9.331-1.018
								c3.271-1.177,5.939-4.059,7.296-6.448c3.378-5.936,3.409-16.073,4.073-24.095c2.027-24.437,4.056-46.635,6.108-71.266
								C424.895,240.764,425.906,236.955,431.063,236.276z"/>
						</g>
					</g>
				</g>
				<g>
					<g>
						<g>
							<g>
								<path style="fill-rule:evenodd;clip-rule:evenodd;fill:#935E45;" d="M313.133,222.597c-0.567-4.691-3.691-7.554-7.49-7.144
									c-3.557,0.382-5.961,2.381-8.159,4.14c-2.13,1.705-4.338,4.031-5.865,5.734c-7.56,8.424-13.589,16.531-19.655,25.345
									c-2.646,3.843-5.091,7.976-7.544,11.821c-0.327,0.512-0.653,1.147-1.24,1.41c-5.628-8.895-12.164-17.33-18.359-25.75
									c-1.576-2.142-4.744-6.143-7.135-8.503c-6.109,2.323-10.006,6.62-16.08,9.037c3.154,3.116,4.521,6.957,5.917,9.728
									c6.157,12.218,11.154,23.191,18.052,34.564c2.403,3.962,4.959,8.267,7.804,11.972c1.068,1.39,2.029,2.868,2.993,3.421
									c4.035,2.311,10.735-2.216,13.657-4.381c3.485-2.578,6.466-5.448,9.14-8.204c8.41-8.668,15.455-18.538,21.418-28.637
									c1.973-3.343,3.754-6.921,5.53-10.661c1.647-3.468,3.291-7.085,4.595-11.189c0.566-1.781,1.231-3.889,1.7-5.987
									C312.896,227.142,313.389,224.713,313.133,222.597z"/>
								<path style="fill:#5D382E;" d="M313.133,222.597c-0.509-4.215-3.086-6.946-6.36-7.161c-0.207,1.579-0.483,3.125-0.73,4.486
									c-0.774,4.286-1.953,8.127-3.154,11.818c-1.295,3.982-2.617,7.801-4.161,11.409c-4.666,10.903-10.447,21.716-17.754,31.502
									c-2.323,3.111-4.94,6.376-8.099,9.415c-2.649,2.55-8.78,7.961-13.126,6.169c-1.038-0.429-2.195-1.785-3.446-3.042
									c-3.334-3.345-6.457-7.328-9.382-10.99c-6.924-8.667-12.795-17.925-19.1-27.194c5.87,11.651,11.145,23.076,17.754,33.971
									c2.403,3.962,4.959,8.266,7.804,11.971c1.068,1.39,2.029,2.868,2.993,3.421c4.035,2.311,10.735-2.217,13.657-4.381
									c3.485-2.578,6.465-5.448,9.14-8.204c8.41-8.668,15.455-18.538,21.418-28.638c1.973-3.343,3.754-6.921,5.53-10.661
									c1.647-3.468,3.291-7.085,4.596-11.189c0.566-1.781,1.231-3.889,1.7-5.988C312.896,227.142,313.389,224.713,313.133,222.597
									z"/>
							</g>
							<g>
								<path style="fill-rule:evenodd;clip-rule:evenodd;fill:#935E45;" d="M207.979,227.445c-1.292,0.307-5.801,0.513-7.814,1.346
									c-0.781,0.322-1.609,0.934-1.481,1.675c0.269,1.562,3.811,1.075,5.069,1.077c2.177,0.003,3.693,0.139,5.55,0.085
									c-1.435,0.553-5.806,0.727-8.333,1.621c-1.052,0.373-2.196,1.001-1.99,1.947c0.259,1.203,3.214,1.135,4.208,1.144
									c4.783,0.043,10.122,0.13,13.909,0.931c4.348,0.923,6.094,1.79,9.443,6.206c0.637,0.84,12.186-12.707,11.856-13.066
									c-6.981-7.609-14.286-11.573-15.999-12.928c-1.622-1.287-6.918-5.54-8.82-3.658c-1.565,1.549,4.056,5.054,5.011,6.489
									c-2.848-0.852-7.657-1.495-12.608-0.963c-1.3,0.141-4.044,0.3-4.15,1.462c-0.148,1.592,2.042,1.546,3.043,1.723
									c1.393,0.245,2.4,0.564,3.631,0.558c-1.748,0.509-5.807,0.593-7.782,1.485c-0.644,0.292-1.314,0.887-1.237,1.47
									c0.178,1.344,2.322,1.039,3.764,1.108c1.968,0.092,3.235,0.287,4.593,0.322
									C207.885,227.467,207.933,227.456,207.979,227.445z"/>
								<g>
									<path style="fill-rule:evenodd;clip-rule:evenodd;fill:#5D382E;" d="M210.823,233.524c-0.421-0.197-1.137-0.93-1.497-1.477
										c-2.099-3.204-1.616-8.68,0.049-10.895C208.655,223.586,207.998,227.956,210.823,233.524z"/>
								</g>
								<path style="fill-rule:evenodd;clip-rule:evenodd;fill:#5D382E;" d="M218.566,220.031c0.089,4.15,1.441,7.123,3.301,9.62
									C218.751,228.884,216.935,222.584,218.566,220.031z"/>
							</g>
						</g>
						<g>
							<path style="fill-rule:evenodd;clip-rule:evenodd;fill:#E488BD;" d="M264.633,261.629l16.692,22.848
								c3.724-3.067,45.138-53.862,26.031-65.98C290.189,207.61,264.633,261.629,264.633,261.629z"/>
							<path style="fill-rule:evenodd;clip-rule:evenodd;fill:#DB62A1;" d="M274.864,290.273l-11.655-26.323l1.716-2.873l16.4,23.4
								C281.324,284.477,277.971,288.617,274.864,290.273z"/>
							<path style="fill:#B04470;" d="M312.367,228.818c-2.241,3.876-4.514,7.765-6.588,11.237
								c-3.927,6.572-9.133,13.739-13.24,19.281c-2.438,3.292-4.839,6.53-7.039,9.307c-4.156,5.244-8.232,10.399-13.695,14.72
								l3.059,6.91c1.206-0.78,2.363-1.642,3.438-2.588c1.453-1.353,2.592-2.69,2.92-3.083c0.03-0.039,0.063-0.075,0.092-0.114
								l0.011-0.011c0,0,0.005-0.005,0.012-0.013c0.67-0.691,1.326-1.38,1.977-2.07
								C290.478,274.261,312.274,245.747,312.367,228.818z"/>
						</g>
					</g>
					<g>
						<g>
							<g>
								<polygon style="fill-rule:evenodd;clip-rule:evenodd;fill:#935E45;" points="267.242,418.113 249.911,414.589 
									242.356,444.727 262.395,448.47 								"/>
								<path style="fill-rule:evenodd;clip-rule:evenodd;fill:#5D382E;" d="M248.393,420.646c7.445,7.553,18.243,2.5,18.243,2.5
									L248.393,420.646z"/>
							</g>
							<g>
								<path style="fill-rule:evenodd;clip-rule:evenodd;fill:#E488BD;" d="M244.153,433.633c0.821,0.208,3.772,0.689,4.66,1.963
									c0.924,1.323,0.289,3.087-0.058,5.425c5.609,0.778,8.102-4.439,15.302-1.898c-0.127,5.812-1.303,12.343-2.592,18.948
									c-14.938-2.474-30.337-5.62-45.457-8.356c0.588-1.45,1.258-2.749,2.048-3.692c2.412-2.862,5.715-3.866,9.381-4.365
									c4.933-0.669,10.645-1.066,14.006-4.447C242.381,436.266,243.138,435.058,244.153,433.633z"/>
								<g>
									<path style="fill-rule:evenodd;clip-rule:evenodd;fill:#B04470;" d="M245.751,440.932c-0.542,0.791-2.395-0.616-3.897-1.15
										c-0.882-0.316-3.072-0.643-3.078-1.507c-0.022-1.546,3.23-0.87,4.543-0.265
										C244.589,438.602,246.55,439.776,245.751,440.932z"/>
									<path style="fill-rule:evenodd;clip-rule:evenodd;fill:#B04470;" d="M242.918,443.871c-0.969,0.903-2.9-0.734-4.368-1.357
										c-0.77-0.327-1.651-0.609-2.417-0.861c-0.734-0.24-2.139-0.412-1.981-1.048c0.343-1.367,2.631-1.052,4.185-0.575
										C240.306,440.626,244.358,442.53,242.918,443.871z"/>
								</g>
								<path style="fill:#B04470;" d="M231.778,441.076c-1.462,0.223-2.937,0.395-4.341,0.583
									c-3.666,0.499-6.969,1.503-9.381,4.365c-0.79,0.943-1.46,2.242-2.048,3.692c6.791,1.228,13.638,2.542,20.479,3.835
									C237.251,447.373,234.573,443.438,231.778,441.076z"/>
								<path style="fill:#B04470;" d="M252.282,456.481c3.075,0.55,6.143,1.089,9.182,1.591c0.821-4.187,1.586-8.343,2.074-12.308
									C260.308,446.559,254.645,449.008,252.282,456.481z"/>
							</g>
						</g>
						<g>
							<path style="fill-rule:evenodd;clip-rule:evenodd;fill:#1E1E77;" d="M242.547,419.853l27.407,3.721
								c4.469-13.351,6.749-18.69,10.128-33.354c3.353-14.58,6.407-30.64,4.537-48.515c20.694,2.363,47.638,3.699,68.386,0.628
								c10.815-1.603,19.587-4.231,24.569-11.737c2.328-3.509,3.812-8.224,4.695-13.458c0.788-4.674,0.376-9.946,0-14.554
								c-0.018-0.256-0.347-0.602-0.311-0.784c0.067-0.336,0.86-0.055,0.467-0.625c-8.415-0.229-16.885-0.858-25.35-1.251
								c-8.47-0.395-16.81-1.655-24.884-2.035c-1.345-0.063-3.57-0.252-5.163-0.159c-1.542,0.093-2.606,0.397-3.911,0.47
								c-4.533,0.26-8.784,0.305-12.991,0.626c-4.24,0.326-8.322,0.758-12.36,1.253c-16.107,1.979-32.089,4.028-38.968,15.493
								c-3.314,5.523-4.55,13.197-5.791,21.438L242.547,419.853z"/>
							<path style="fill:#171458;" d="M282.271,313.536c0.912-1.234,2.612-2.681,3.755-3.442c0.254-0.17,0.525-0.328,0.798-0.484
								c-18.93,0-8.583,36.477-9.403,53.068c-0.858,17.352-3.902,32.138-7.984,46.162c-1.027,3.541-3.156,13.661-3.124,14.238
								l3.641,0.497c0.196-0.244,6.811-18.969,10.128-33.354c2.754-11.967,5.298-24.934,5.089-39.081l0,0l0,0
								c-0.046-3.088-0.217-6.231-0.552-9.434c0.2,0.024,0.41,0.045,0.606,0.068c-0.095-0.183-0.187-0.367-0.292-0.536
								c-0.775-1.254-2.354-2.805-3.803-3.133C278.998,329.813,277.61,319.831,282.271,313.536z"/>
						</g>
					</g>
					<g>
						<g>
							<g>
								<polygon style="fill-rule:evenodd;clip-rule:evenodd;fill:#935E45;" points="334.473,410.221 317.029,413.139 
									320.772,443.983 340.822,440.3 								"/>
								<path style="fill-rule:evenodd;clip-rule:evenodd;fill:#5D382E;" d="M317.986,421.984
									c9.667,5.118,18.508-2.337,18.508-2.337L317.986,421.984z"/>
							</g>
							<g>
								<path style="fill-rule:evenodd;clip-rule:evenodd;fill:#E488BD;" d="M318.476,432.983c0.841-0.099,3.768-0.708,5.054,0.164
									c1.337,0.904,1.376,2.779,1.889,5.086c5.515-1.283,5.974-7.047,13.607-7.253c1.963,5.472,3.205,11.991,4.368,18.619
									c-14.833,3.041-30.337,5.621-45.434,8.482c0.029-1.564,0.19-3.017,0.589-4.181c1.227-3.536,3.95-5.657,7.195-7.436
									c4.366-2.392,9.557-4.808,11.484-9.17C317.764,436.074,318.039,434.676,318.476,432.983z"/>
								<g>
									<path style="fill-rule:evenodd;clip-rule:evenodd;fill:#B04470;" d="M322.582,439.224c-0.223,0.933-2.457,0.283-4.05,0.323
										c-0.937,0.021-3.099,0.5-3.413-0.304c-0.574-1.436,2.704-1.969,4.147-1.874
										C320.662,437.465,322.914,437.858,322.582,439.224z"/>
									<path style="fill-rule:evenodd;clip-rule:evenodd;fill:#B04470;" d="M320.99,442.983c-0.581,1.191-2.971,0.353-4.564,0.297
										c-0.836-0.029-1.759,0.023-2.565,0.062c-0.772,0.04-2.145,0.382-2.225-0.268c-0.169-1.399,2.08-1.925,3.702-2.036
										C317.389,440.889,321.854,441.215,320.99,442.983z"/>
								</g>
								<path style="fill:#B04470;" d="M309.588,444.364c-1.285,0.732-2.6,1.421-3.845,2.1c-3.244,1.779-5.968,3.9-7.195,7.436
									c-0.4,1.163-0.56,2.616-0.589,4.181c6.78-1.286,13.643-2.512,20.494-3.755C316.954,448.283,313.043,445.568,309.588,444.364
									z"/>
								<path style="fill:#B04470;" d="M334.25,451.402c3.068-0.588,6.125-1.184,9.143-1.804c-0.733-4.203-1.508-8.357-2.473-12.234
									C338.189,439.263,333.779,443.578,334.25,451.402z"/>
							</g>
						</g>
						<g>
							<path style="fill-rule:evenodd;clip-rule:evenodd;fill:#2F2FA7;" d="M388.218,321.363
								c-1.216-7.343-3.875-13.867-5.793-20.189c-0.612-0.247-0.319,0.263-0.622,0.328c-7.796,0.875-16.132,0.519-24.884,0.61
								c-8.507,0.09-17.15,0.471-25.51,0.783c-8.097,0.303-16.854,0.503-24.883,1.411c-3.744,0.42-7.49,1.292-10.953,2.189
								c-3.598,0.932-7.046,1.931-9.547,3.599c-1.143,0.761-2.844,2.208-3.755,3.442c-6.138,8.29-1.787,22.977,0.939,31.77
								c3.134,10.109,7.361,19.265,10.641,28.637c6.711,19.158,12.374,31.351,18.899,48.907c1.679-0.273,3.376-0.461,5.062-0.665
								c4.187-0.508,8.39-0.897,12.563-1.518c3.421-0.509,6.817-1.105,10.2-1.76c-0.972-12.81-1.671-21.324-4.937-33.229
								c-3.771-13.739-9.352-25.78-15.338-36.931c10.368,2.5,23.184,2.975,35.835,2.975c12.422,0,23.971-1.654,29.58-9.234
								C389.518,337.341,389.468,328.923,388.218,321.363z"/>
							<g>
								<path style="fill:#1E1E77;" d="M388.218,321.363c-0.594-3.574-1.527-6.95-2.55-10.208c0.426,2.63,0.671,5.459,0.671,8.172
									c0,6.128-0.678,11.043-3.285,14.866c-1.704,2.495-3.974,4.876-6.419,6.415c-6.785,4.286-20.909,3.434-31.765,3.131
									c-7.884-0.22-16.795-0.95-25.821-0.47c-2.835,0.15-6.131,0.677-6.731,2.036c-0.756,1.713,0.503,4.149,1.251,5.79
									c5.315,11.603,10.7,23.724,14.555,36.931c3.535,12.107,5.518,19.714,7.212,31.836c1.75-0.302,3.496-0.619,5.238-0.957
									c-0.972-12.81-1.671-21.324-4.937-33.229c-3.771-13.739-9.352-25.78-15.338-36.931c10.368,2.5,23.184,2.975,35.835,2.975
									c12.422,0,23.973-1.654,29.58-9.234C389.518,337.341,389.468,328.923,388.218,321.363z"/>
							</g>
						</g>
					</g>
					<g>
						<g>
							<path style="fill-rule:evenodd;clip-rule:evenodd;fill:#D967A2;" d="M331.325,302.895
								c-2.699-14.882-12.046-30.106-17.427-37.175c-0.641-0.842-1.759-2.564-2.47-2.766c-0.738-0.208-1.609,0.043-2.273,0
								c-2.014-0.133-3.61-0.771-5.038-1.581c-1.831-1.039-3.501-2.417-4.347-4.447c-1.153-2.762-0.333-8.407-0.494-11.954
								c-0.186-4.076-0.572-8.167-0.593-12.153c-0.035-6.451,1.996-10.652,4.644-14.622c2.224-3.336,4.46-5.798,8.299-7.708
								c2.234-1.112,4.876-1.826,7.707-1.976c4.722-0.251,8.859,0.907,12.548,2.37c3.72,1.477,6.906,3.161,9.781,5.138
								c6.034,4.148,11.227,8.673,15.413,14.426c26.612,36.569,24.098,67.402,25.266,70.726
								C382.517,301.676,337.107,303.812,331.325,302.895z"/>
							<path style="fill:#B04470;" d="M356.679,232.379c18.965,33.032,17.829,59.794,17.478,69.468
								c4.939-0.282,8.231-0.537,8.183-0.673c-1.168-3.324,1.346-34.157-25.266-70.726c-3.086-4.239-6.72-7.812-10.833-11.059
								C350.348,223.296,353.871,227.487,356.679,232.379z"/>
						</g>
						<g>
							<g>
								<path style="fill:#FFFFFF;" d="M289.688,189.292l-0.075-0.009l-0.045,0.062c-0.069,0.096-0.15,0.19-0.247,0.288
									c-0.098,0.098-0.19,0.202-0.28,0.306l-0.271,0.304l0.264,0.016c4.063,0.247,7.273,3.627,7.308,7.693
									c0.036,4.291-3.425,7.811-7.716,7.847c-4.29,0.036-7.811-3.425-7.847-7.716c-0.029-3.417,2.148-6.416,5.439-7.471
									c0.418-0.227,0.481-0.524,0.407-0.71c-0.078-0.202-0.346-0.359-0.771-0.247c-3.682,1.192-6.134,4.583-6.101,8.437
									c0.041,4.857,4.025,8.774,8.882,8.733c4.857-0.041,8.775-4.026,8.734-8.882C297.331,193.571,294.03,189.852,289.688,189.292
									z"/>
								<path style="fill:#935E45;" d="M320.145,190.904c0,0,2.939-3.793,3.476-10.012c-1.542-6.528-2.103-18.116-7.348-20.725
									c-7.718-3.836-18.776-0.782-23.492,4.655c-4.046,4.675-7.334,14.677-6.98,24.402c0.357,9.829,4.472,16.384,16.208,13.382
									c1.174,3.852,3.015,10.215,3.494,11.6c1.011,2.951,14.245,6.955,20.194-4.98
									C325.721,209.686,320.382,193.375,320.145,190.904z"/>
								<g>
									<path style="fill-rule:evenodd;clip-rule:evenodd;fill:#171458;" d="M345.146,177.578c2.193-0.485,3.826-2.446,3.806-4.782
										c-0.023-2.683-2.216-4.84-4.899-4.817c-0.414,0.003-0.809,0.075-1.193,0.175c-0.238-1.071-0.912-2.063-1.958-2.579
										c0.04-0.142,0.069-0.312,0.088-0.491c1.406-1.108,2.306-2.827,2.29-4.756c-0.028-3.31-2.734-5.97-6.043-5.942
										c-1.462,0.012-2.796,0.548-3.829,1.427c-0.71-1.774-2.443-3.026-4.469-3.008c-0.034-4.007-3.31-7.229-7.317-7.195
										c-3.444,0.029-6.302,2.456-7.017,5.681c-0.175,0.007-0.349,0.02-0.521,0.042c-0.306-1.784-1.856-3.139-3.724-3.123
										c-0.107,0.001-0.207,0.024-0.311,0.034c-0.623-3.405-3.612-5.975-7.191-5.945c-2.886,0.024-5.357,1.734-6.505,4.184
										c-0.532-1.448-1.916-2.481-3.547-2.467c-2.076,0.018-3.745,1.715-3.727,3.79c0.008,0.961,0.387,1.825,0.985,2.484
										c0.017,0.245,0.054,0.492,0.132,0.742c-1.093-0.406-2.638-0.96-4.213,0.157c-0.95,0.675-1.389,1.979-1.167,3.336
										c-0.726-0.432-1.566-0.691-2.473-0.684c-2.64,0.022-4.762,2.18-4.739,4.82c0.01,1.145,0.437,2.178,1.116,2.995
										c-2.593,0.076-4.663,2.203-4.641,4.809c0.003,0.317,0.04,0.626,0.101,0.925c-3.213,0.136-5.765,2.791-5.738,6.031
										c0.027,3.238,2.619,5.847,5.831,5.933c-0.085,0.41-0.13,0.833-0.126,1.269c0.028,3.31,2.734,5.97,6.043,5.942
										c1.862-0.016,4.663-0.97,5.751-2.311c0,0,0.464-3.709,0.791-5.529c0.675-3.113,1.345-5.342,2.163-6.951
										c1.338-0.709,2.238-1.738,2.448-2.693c0.358,0.233,0.775,0.394,1.24,0.435c1.071,0.094,2.052-0.43,2.541-1.259
										c0.368,0.487,0.931,0.839,1.616,0.899c0.728,0.064,1.381-0.225,1.846-0.689c0.886,0.732,2.56,1.373,4.557,1.649
										c2.301,0.318,4.359,0.063,5.325-0.573c0.387,0.78,1.123,1.38,2.047,1.606c-0.496,0.467-0.838,1.081-0.91,1.787
										c-0.165,1.62,1.104,3.056,2.836,3.209c0.185,0.016,0.366,0.01,0.545-0.003c-0.25,0.305-0.445,0.653-0.487,1.064
										c-0.113,1.112,0.723,2.079,1.879,2.267c-0.579,4.91-2.685,9.75-1.87,9.839c2.16-0.535,4.031-7.054,5.621-7.007
										c0.88,0.026,1.609,0.537,1.936,0.97c2.451,3.237,0.984,7.215-2.82,8.087c-2.504,2.389-1.066,5.19,0.053,5.723
										c0.802,0.382,1.651,0.126,2.554-0.209c1.129,1.001,2.702,1.889,4.316,1.226c0.094-0.038,0.175-0.093,0.263-0.138
										c0.797,1.706,2.525,2.887,4.53,2.87c2.741-0.023,4.943-2.264,4.92-5.004c-0.002-0.289-0.042-0.568-0.092-0.843
										c0.784,0.525,1.727,0.83,2.741,0.821c2.566-0.022,4.628-2.034,4.786-4.556c0.033,0,0.066,0.004,0.099,0.004
										c4.07-0.034,7.341-3.362,7.307-7.432C348.698,181.167,347.267,178.856,345.146,177.578z"/>
									<path style="fill:#2B2BAB;" d="M301.927,153.018c0.539,0.122,1.017,0.36,1.429,0.674c-0.487-0.797-1.267-1.415-2.244-1.669
										c-2.009-0.521-4.121,0.67-4.583,2.694c-0.443,1.942,0.232,3.145,0.242,3.405c-0.95-0.675-2.299-1.612-4.109-0.941
										c-1.092,0.405-1.854,1.551-1.992,2.919c-0.589-0.605-1.333-1.074-2.211-1.302c-2.555-0.663-5.164,0.871-5.827,3.426
										c-0.266,1.025,0.063,2.683,1.18,3.72c-0.166-0.679-0.189-1.401-0.025-2.13c0.58-2.575,3.138-4.193,5.713-3.613
										c0.884,0.199,1.643,0.643,2.251,1.229c0.093-1.372,0.818-2.542,1.896-2.982c1.788-0.729,3.166,0.163,4.138,0.807
										c-0.019-0.26-0.481-1.278-0.353-3.396C297.56,153.787,299.902,152.561,301.927,153.018z"/>
									<path style="fill:#2B2BAB;" d="M320.755,156.003c3.821,1.208,5.939,5.285,4.731,9.106c1.932,0.611,3.192,2.337,3.319,4.244
										c1.254-0.516,2.689-0.613,4.082-0.172c3.156,0.998,4.905,4.365,3.908,7.521c-0.197,0.622-0.492,1.184-0.854,1.686
										c1.09-0.729,1.951-1.813,2.377-3.16c0.998-3.156-0.752-6.523-3.908-7.521c-1.394-0.441-2.828-0.344-4.082,0.172
										c-0.126-1.907-1.386-3.633-3.319-4.244c1.208-3.821-0.91-7.898-4.731-9.106c-2.984-0.943-6.114,0.149-7.921,2.49
										C316.148,155.74,318.495,155.288,320.755,156.003z"/>
								</g>
								<g>
									<g>
										<g>
											<g>
												<path style="fill-rule:evenodd;clip-rule:evenodd;fill:#5D382E;" d="M302.009,202.606l1.585,5.304
													c5.228-2.933,7.675-10.603,7.675-10.603S304.27,201.496,302.009,202.606z"/>
											</g>
											<path style="fill-rule:evenodd;clip-rule:evenodd;fill:#935E45;" d="M323.41,186.802
												c-0.753,2.224-4.043,5.464-5.995,4.805c-1.952-0.659-1.827-4.966-1.075-7.196c0.753-2.224,2.944-3.493,4.898-2.836
												C323.186,182.237,324.16,184.572,323.41,186.802z"/>
										</g>
										<path style="fill:#FFFFFF;" d="M322.002,189.019l-0.075-0.009l-0.045,0.062c-0.069,0.096-0.15,0.19-0.247,0.288
											c-0.098,0.098-0.19,0.202-0.28,0.306l-0.271,0.304l0.264,0.016c4.063,0.247,7.273,3.627,7.308,7.693
											c0.036,4.291-3.425,7.811-7.716,7.847c-4.29,0.036-7.811-3.425-7.847-7.716c-0.029-3.417,2.148-6.416,5.439-7.471
											c0.418-0.227,0.481-0.524,0.407-0.71c-0.078-0.202-0.346-0.359-0.771-0.247c-3.682,1.192-6.134,4.583-6.101,8.437
											c0.041,4.856,4.025,8.774,8.882,8.733c4.856-0.041,8.775-4.026,8.734-8.882
											C329.645,193.298,326.343,189.579,322.002,189.019z"/>
									</g>
									<g>
										<g>
											<path style="fill:#5D382E;" d="M292.934,188.894c-0.034-0.002-0.07-0.019-0.103-0.027
												c-0.913-0.362-1.501-0.874-1.796-1.567c-0.588-1.401,0.161-3.181,1.109-5.428c0.604-1.428,1.284-3.054,1.73-4.84
												c0.091-0.326,0.422-0.531,0.747-0.446c0.326,0.086,0.533,0.417,0.451,0.744c-0.473,1.879-1.175,3.549-1.795,5.018
												c-0.806,1.907-1.498,3.553-1.112,4.477c0.161,0.369,0.522,0.665,1.107,0.893c0.319,0.13,0.471,0.479,0.352,0.797
												C293.514,188.798,293.223,188.955,292.934,188.894"/>
											<path style="fill:#5D382E;" d="M292.741,196.006c-2.388-0.357-2.529-3.819-2.375-4.119
												c0.145-0.299,0.517-0.43,0.822-0.279c3.23,1.593,4.719-0.172,4.786-0.248c0.21-0.262,0.664-0.367,0.856-0.096
												C297.655,192.383,295.574,196.559,292.741,196.006"/>
										</g>
										<g>
											<path style="fill-rule:evenodd;clip-rule:evenodd;fill:#171458;" d="M286.55,175.189
												c0.022,0.493,1.591,0.819,3.507,0.723c1.914-0.099,3.444-0.58,3.423-1.076c-0.029-0.499-1.599-0.829-3.514-0.727
												C288.055,174.205,286.52,174.684,286.55,175.189"/>
											<path style="fill-rule:evenodd;clip-rule:evenodd;fill:#171458;" d="M288.018,180.169
												c-0.126,0.843,0.282,1.607,0.902,1.689c0.621,0.091,1.222-0.529,1.344-1.376c0.116-0.85-0.29-1.607-0.905-1.691
												C288.736,178.7,288.135,179.317,288.018,180.169"/>
										</g>
										<g>
											<path style="fill-rule:evenodd;clip-rule:evenodd;fill:#171458;" d="M296.83,175.1c-0.172,0.481,1.188,1.41,3.046,2.072
												c1.846,0.671,3.498,0.814,3.666,0.335c0.172-0.485-1.186-1.417-3.043-2.085
												C298.644,174.759,297.004,174.616,296.83,175.1"/>
											<path style="fill-rule:evenodd;clip-rule:evenodd;fill:#171458;" d="M298.025,181.163
												c-0.131,0.898,0.297,1.718,0.963,1.81c0.663,0.092,1.299-0.57,1.431-1.472c0.126-0.904-0.308-1.715-0.97-1.807
												C298.789,179.6,298.147,180.258,298.025,181.163"/>
										</g>
									</g>
								</g>
							</g>
							<path style="fill:#B04470;" d="M312.595,221.161c-3.643,0-6.897-0.322-9.777-2.2l2.058-6.343
								c3.026,2.524,7.897,3.294,12.165,1.848c2.388-0.809,6.462-2.997,7.456-8.646l5.203,4.355
								c-1.688,5.037-5.469,8.158-10.747,9.942C316.878,220.822,314.72,221.161,312.595,221.161z"/>
						</g>
					</g>
					<g>
						<g>
							<path style="fill-rule:evenodd;clip-rule:evenodd;fill:#935E45;" d="M343.527,224.281c-0.947-6.31-4.859-14.549-12.482-9.362
								c-2.254,1.533-3.82,3.736-4.99,5.988c-3.431,6.61-6.065,13.551-8.039,20.401c-2.354,8.168-4.354,16.611-5.595,24.953
								c-0.175,1.179-0.262,2.399-0.689,3.515c-3.763-5.897-7.455-12.783-10.578-19.53c-1.54-3.592-7.158-17.507-8.918-22.592
								c-1.422-4.108-3.797-11.816-8.202-13.379c-1.254-0.444-3.546-0.653-5.151-0.76c-3.122-0.204-8.695-0.793-9.349,0.554
								c-1.619,3.338,4.884,4.049,6.868,4.693c-1.035,0.67-1.836,1.575-2.076,2.731c-0.122,0.585-0.022,1.356-0.256,1.931
								c-0.133,0.323-0.739,0.568-1.081,1.229c-0.644,1.239-0.863,3.988-0.335,5.476c0.538,1.508,2.836,2.36,3.478,3.513
								c0.537,0.97,0.259,2.175,0.56,3.004c0.567,1.575,1.524,3.221,2.762,4.244c0.605,0.501,1.64,0.617,2.113,1.227
								c0.323,0.413,4.195,19.712,5.168,22.997c2.155,7.274,4.487,13.757,7.344,20.617c3.053,7.33,7.437,15.031,12.562,17.623
								c2.249,1.136,5.769,1.657,9.118,0.466c5-1.778,7.87-4.99,10.387-8.397c7.183-9.722,10.202-20.224,12.931-31.213
								c1.75-7.051,3.28-14.257,4.252-22.251C344.038,236.128,344.447,230.412,343.527,224.281z"/>
							<g>
								<path style="fill-rule:evenodd;clip-rule:evenodd;fill:#5D382E;" d="M269.301,215.342c0.481,0.304,1.072,0.582,1.701,0.859
									c2.607,1.147,6.066,0.849,9.805,1.299c-1.611,0.122-3.336,0.489-4.405,1.263
									C273.78,218.373,269.629,217.505,269.301,215.342"/>
								<path style="fill-rule:evenodd;clip-rule:evenodd;fill:#5D382E;" d="M279.723,220.28c-1.857-0.047-3.687-0.063-5.129,0.389
									C275.229,218.901,278.21,219.526,279.723,220.28"/>
								<path style="fill-rule:evenodd;clip-rule:evenodd;fill:#5D382E;" d="M278.889,222.72c-1.569,0.173-3.178,0.296-4.631,0.609
									C274.806,221.921,277.203,222.2,278.889,222.72"/>
								<path style="fill-rule:evenodd;clip-rule:evenodd;fill:#5D382E;" d="M283.171,241.967c0.713,0.499,1.811,1.172,2.091,1.386
									c-3.564,0.422-5.876-1.324-7.243-3.454c-1.771-2.763-1.564-6.738-2.187-9.903
									C275.765,229.658,279.166,239.16,283.171,241.967"/>
							</g>
						</g>
						<g>
							<path style="fill-rule:evenodd;clip-rule:evenodd;fill:#E488BD;" d="M312.303,267.129l20.583,16.564
								c2.326-4.068,23.562-65.184,3.897-70.796C319.115,207.854,312.303,267.129,312.303,267.129z"/>
							<path style="fill-rule:evenodd;clip-rule:evenodd;fill:#DB62A1;" d="M328.983,291.203l-17.251-21.426l0.667-3.263
								l20.487,17.179C332.886,283.693,331.175,288.667,328.983,291.203z"/>
							<path style="fill:#5D382E;" d="M322.439,288.682c-1.795,2.523-5.727,7.765-10.53,8.481c-2.988,0.448-6.218-2.704-8.366-5.188
								c-6.973-8.056-12.728-19.855-17.642-30.367c-0.014-0.032-0.028-0.064-0.043-0.095c0.373,1.653,0.683,2.945,0.877,3.602
								c2.155,7.274,4.487,13.757,7.344,20.617c3.053,7.33,7.437,15.031,12.562,17.623c1.387,0.702,3.258,1.167,5.274,1.142
								c0.554-0.009,1.118-0.058,1.685-0.139c0.718-0.109,1.442-0.281,2.159-0.537c5-1.778,7.87-4.99,10.387-8.397
								c1.028-1.39,1.968-2.798,2.836-4.22l-4.528-5.624C323.83,286.625,323.165,287.661,322.439,288.682z"/>
							<path style="fill:#B04470;" d="M343.924,221.161c-0.836,4.379-1.697,8.781-2.502,12.724
								c-1.526,7.465-3.979,15.89-5.945,22.431c-1.166,3.885-2.316,7.707-3.423,11.028c-2.09,6.272-4.137,12.436-7.599,18.234
								l4.528,5.624c0.813-1.115,1.561-2.293,2.215-3.525c0.864-1.736,1.465-3.36,1.635-3.835c0.015-0.046,0.033-0.09,0.047-0.137
								l0.006-0.014c0,0,0.003-0.006,0.007-0.016c0.38-0.865,0.749-1.723,1.112-2.58
								C337.861,271.146,348.543,237.288,343.924,221.161z"/>
						</g>
					</g>
				</g>
			</g>
		</g>
	</g>
</g>
<!-- Code injected by live-server -->
<script>
	// <![CDATA[  <-- For SVG support
	if ('WebSocket' in window) {
		(function () {
			function refreshCSS() {
				var sheets = [].slice.call(document.getElementsByTagName("link"));
				var head = document.getElementsByTagName("head")[0];
				for (var i = 0; i < sheets.length; ++i) {
					var elem = sheets[i];
					var parent = elem.parentElement || head;
					parent.removeChild(elem);
					var rel = elem.rel;
					if (elem.href && typeof rel != "string" || rel.length == 0 || rel.toLowerCase() == "stylesheet") {
						var url = elem.href.replace(/(&|\?)_cacheOverride=\d+/, '');
						elem.href = url + (url.indexOf('?') >= 0 ? '&' : '?') + '_cacheOverride=' + (new Date().valueOf());
					}
					parent.appendChild(elem);
				}
			}
			var protocol = window.location.protocol === 'http:' ? 'ws://' : 'wss://';
			var address = protocol + window.location.host + window.location.pathname + '/ws';
			var socket = new WebSocket(address);
			socket.onmessage = function (msg) {
				if (msg.data == 'reload') window.location.reload();
				else if (msg.data == 'refreshcss') refreshCSS();
			};
			if (sessionStorage && !sessionStorage.getItem('IsThisFirstTime_Log_From_LiveServer')) {
				console.log('Live reload enabled.');
				sessionStorage.setItem('IsThisFirstTime_Log_From_LiveServer', true);
			}
		})();
	}
	else {
		console.error('Upgrade your browser. This Browser is NOT supported WebSocket for Live-Reloading.');
	}
	// ]]>
</script>
</svg>
